<?xml version="1.0" standalone="no"?>
<!DOCTYPE svg PUBLIC "-//W3C//DTD SVG 1.1//EN" 
"http://www.w3.org/Graphics/SVG/1.1/DTD/svg11.dtd"> 
<svg
  xmlns="http://www.w3.org/2000/svg"
  version="1.1"
  width="11.693in" height="8.268in" viewBox="0 0 11693 8268 "
>
  <title>SVG Picture created as audioin.svg </title>
  <desc>Picture generated by wxSVG v0101 </desc>
  <g style="fill:black; stroke:black; stroke-width:1">
</g>
<g style="fill:#000000; fill-opacity:0.0; 
  stroke:#000000; stroke-linecap:round; stroke-linejoin:round; stroke-opacity:1.0; stroke-opacity:1.0; stroke-width:10" 
   transform="translate(0 0) scale(1 1)">
<polygon style="fill-rule:evenodd; " 
points="9150,1550
9150,1550
9150,2150
9350,2150
9350,1550
" /> 
<ellipse cx="9115" cy="1600" rx="35" ry="35"  /> 
<path d="M9080 1600 L8900 1600" /> 
<path d="M9043 1584 L9008 1584" /> 
<g style = "stroke-linecap:round;" > 
<path d="M9008 1584 L9008 1584" /> 
</g><path d="M9026 1584 L9026 1524" /> 
<path d="M9026 1524 L9020 1533" /> 
<path d="M9020 1533 L9014 1539" /> 
<path d="M9014 1539 L9008 1541" /> 
<g style = "stroke-linecap:round;" > 
<path d="M9008 1541 L9008 1541" /> 
</g><ellipse cx="9115" cy="1700" rx="35" ry="35"  /> 
<path d="M9080 1700 L8900 1700" /> 
<path d="M9008 1630 L9011 1627" /> 
<path d="M9011 1627 L9017 1624" /> 
<path d="M9017 1624 L9031 1624" /> 
<path d="M9031 1624 L9037 1627" /> 
<path d="M9037 1627 L9040 1630" /> 
<path d="M9040 1630 L9043 1636" /> 
<path d="M9043 1636 L9043 1641" /> 
<path d="M9043 1641 L9040 1650" /> 
<path d="M9040 1650 L9006 1684" /> 
<path d="M9006 1684 L9043 1684" /> 
<g style = "stroke-linecap:round;" > 
<path d="M9043 1684 L9043 1684" /> 
</g><ellipse cx="9115" cy="1800" rx="35" ry="35"  /> 
<path d="M9080 1800 L8900 1800" /> 
<path d="M9006 1724 L9043 1724" /> 
<path d="M9043 1724 L9023 1747" /> 
<path d="M9023 1747 L9031 1747" /> 
<path d="M9031 1747 L9037 1750" /> 
<path d="M9037 1750 L9040 1753" /> 
<path d="M9040 1753 L9043 1759" /> 
<path d="M9043 1759 L9043 1773" /> 
<path d="M9043 1773 L9040 1779" /> 
<path d="M9040 1779 L9037 1781" /> 
<path d="M9037 1781 L9031 1784" /> 
<path d="M9031 1784 L9014 1784" /> 
<path d="M9014 1784 L9008 1781" /> 
<path d="M9008 1781 L9006 1779" /> 
<g style = "stroke-linecap:round;" > 
<path d="M9006 1779 L9006 1779" /> 
</g><ellipse cx="9115" cy="1900" rx="35" ry="35"  /> 
<path d="M9080 1900 L8900 1900" /> 
<path d="M9037 1844 L9037 1884" /> 
<g style = "stroke-linecap:round;" > 
<path d="M9037 1884 L9037 1884" /> 
</g><path d="M9023 1821 L9008 1864" /> 
<path d="M9008 1864 L9046 1864" /> 
<g style = "stroke-linecap:round;" > 
<path d="M9046 1864 L9046 1864" /> 
</g><ellipse cx="9115" cy="2000" rx="35" ry="35"  /> 
<path d="M9080 2000 L8900 2000" /> 
<path d="M9040 1924 L9011 1924" /> 
<path d="M9011 1924 L9008 1953" /> 
<path d="M9008 1953 L9011 1950" /> 
<path d="M9011 1950 L9017 1947" /> 
<path d="M9017 1947 L9031 1947" /> 
<path d="M9031 1947 L9037 1950" /> 
<path d="M9037 1950 L9040 1953" /> 
<path d="M9040 1953 L9043 1959" /> 
<path d="M9043 1959 L9043 1973" /> 
<path d="M9043 1973 L9040 1979" /> 
<path d="M9040 1979 L9037 1981" /> 
<path d="M9037 1981 L9031 1984" /> 
<path d="M9031 1984 L9017 1984" /> 
<path d="M9017 1984 L9011 1981" /> 
<path d="M9011 1981 L9008 1979" /> 
<g style = "stroke-linecap:round;" > 
<path d="M9008 1979 L9008 1979" /> 
</g><ellipse cx="9115" cy="2100" rx="35" ry="35"  /> 
<path d="M9080 2100 L8900 2100" /> 
<path d="M9037 2024 L9026 2024" /> 
<path d="M9026 2024 L9020 2027" /> 
<path d="M9020 2027 L9017 2030" /> 
<path d="M9017 2030 L9011 2039" /> 
<path d="M9011 2039 L9008 2050" /> 
<path d="M9008 2050 L9008 2073" /> 
<path d="M9008 2073 L9011 2079" /> 
<path d="M9011 2079 L9014 2081" /> 
<path d="M9014 2081 L9020 2084" /> 
<path d="M9020 2084 L9031 2084" /> 
<path d="M9031 2084 L9037 2081" /> 
<path d="M9037 2081 L9040 2079" /> 
<path d="M9040 2079 L9043 2073" /> 
<path d="M9043 2073 L9043 2059" /> 
<path d="M9043 2059 L9040 2053" /> 
<path d="M9040 2053 L9037 2050" /> 
<path d="M9037 2050 L9031 2047" /> 
<path d="M9031 2047 L9020 2047" /> 
<path d="M9020 2047 L9014 2050" /> 
<path d="M9014 2050 L9011 2053" /> 
<path d="M9011 2053 L9008 2059" /> 
<g style = "stroke-linecap:round;" > 
<path d="M9008 2059 L9008 2059" /> 
</g><path d="M9219 1893 L9159 1893" /> 
<path d="M9159 1893 L9159 1870" /> 
<path d="M9159 1870 L9162 1864" /> 
<path d="M9162 1864 L9165 1861" /> 
<path d="M9165 1861 L9171 1858" /> 
<path d="M9171 1858 L9179 1858" /> 
<path d="M9179 1858 L9185 1861" /> 
<path d="M9185 1861 L9188 1864" /> 
<path d="M9188 1864 L9191 1870" /> 
<path d="M9191 1870 L9191 1893" /> 
<g style = "stroke-linecap:round;" > 
<path d="M9191 1893 L9191 1893" /> 
</g><path d="M9165 1836 L9162 1833" /> 
<path d="M9162 1833 L9159 1827" /> 
<path d="M9159 1827 L9159 1813" /> 
<path d="M9159 1813 L9162 1807" /> 
<path d="M9162 1807 L9165 1804" /> 
<path d="M9165 1804 L9171 1801" /> 
<path d="M9171 1801 L9176 1801" /> 
<path d="M9176 1801 L9185 1804" /> 
<path d="M9185 1804 L9219 1838" /> 
<path d="M9219 1838 L9219 1801" /> 
<g style = "stroke-linecap:round;" > 
<path d="M9219 1801 L9219 1801" /> 
</g><path d="M9302 1923 L9302 1894" /> 
<g style = "stroke-linecap:round;" > 
<path d="M9302 1894 L9302 1894" /> 
</g><path d="M9319 1928 L9259 1908" /> 
<path d="M9259 1908 L9319 1888" /> 
<g style = "stroke-linecap:round;" > 
<path d="M9319 1888 L9319 1888" /> 
</g><path d="M9319 1869 L9259 1869" /> 
<path d="M9259 1869 L9259 1854" /> 
<path d="M9259 1854 L9262 1846" /> 
<path d="M9262 1846 L9268 1840" /> 
<path d="M9268 1840 L9274 1837" /> 
<path d="M9274 1837 L9285 1834" /> 
<path d="M9285 1834 L9294 1834" /> 
<path d="M9294 1834 L9305 1837" /> 
<path d="M9305 1837 L9311 1840" /> 
<path d="M9311 1840 L9316 1846" /> 
<path d="M9316 1846 L9319 1854" /> 
<path d="M9319 1854 L9319 1869" /> 
<path d="M9314 1774 L9316 1777" /> 
<path d="M9316 1777 L9319 1786" /> 
<path d="M9319 1786 L9319 1792" /> 
<path d="M9319 1792 L9316 1800" /> 
<path d="M9316 1800 L9311 1806" /> 
<path d="M9311 1806 L9305 1809" /> 
<path d="M9305 1809 L9294 1812" /> 
<path d="M9294 1812 L9285 1812" /> 
<path d="M9285 1812 L9274 1809" /> 
<path d="M9274 1809 L9268 1806" /> 
<path d="M9268 1806 L9262 1800" /> 
<path d="M9262 1800 L9259 1792" /> 
<path d="M9259 1792 L9259 1786" /> 
<path d="M9259 1786 L9262 1777" /> 
<path d="M9262 1777 L9265 1774" /> 
<g style = "stroke-linecap:round;" > 
<path d="M9265 1774 L9265 1774" /> 
</g><path d="M8325 1584 L8325 1524" /> 
<path d="M8325 1524 L8340 1524" /> 
<path d="M8340 1524 L8348 1527" /> 
<path d="M8348 1527 L8354 1533" /> 
<path d="M8354 1533 L8357 1539" /> 
<path d="M8357 1539 L8360 1550" /> 
<path d="M8360 1550 L8360 1559" /> 
<path d="M8360 1559 L8357 1570" /> 
<path d="M8357 1570 L8354 1576" /> 
<path d="M8354 1576 L8348 1581" /> 
<path d="M8348 1581 L8340 1584" /> 
<path d="M8340 1584 L8325 1584" /> 
<path d="M8382 1567 L8411 1567" /> 
<g style = "stroke-linecap:round;" > 
<path d="M8411 1567 L8411 1567" /> 
</g><path d="M8377 1584 L8397 1524" /> 
<path d="M8397 1524 L8417 1584" /> 
<g style = "stroke-linecap:round;" > 
<path d="M8417 1584 L8417 1584" /> 
</g><path d="M8471 1579 L8468 1581" /> 
<path d="M8468 1581 L8459 1584" /> 
<path d="M8459 1584 L8453 1584" /> 
<path d="M8453 1584 L8445 1581" /> 
<path d="M8445 1581 L8439 1576" /> 
<path d="M8439 1576 L8436 1570" /> 
<path d="M8436 1570 L8433 1559" /> 
<path d="M8433 1559 L8433 1550" /> 
<path d="M8433 1550 L8436 1539" /> 
<path d="M8436 1539 L8439 1533" /> 
<path d="M8439 1533 L8445 1527" /> 
<path d="M8445 1527 L8453 1524" /> 
<path d="M8453 1524 L8459 1524" /> 
<path d="M8459 1524 L8468 1527" /> 
<path d="M8468 1527 L8471 1530" /> 
<g style = "stroke-linecap:round;" > 
<path d="M8471 1530 L8471 1530" /> 
</g><path d="M8482 1590 L8528 1590" /> 
<g style = "stroke-linecap:round;" > 
<path d="M8528 1590 L8528 1590" /> 
</g><path d="M8577 1584 L8557 1556" /> 
<g style = "stroke-linecap:round;" > 
<path d="M8557 1556 L8557 1556" /> 
</g><path d="M8542 1584 L8542 1524" /> 
<path d="M8542 1524 L8565 1524" /> 
<path d="M8565 1524 L8571 1527" /> 
<path d="M8571 1527 L8574 1530" /> 
<path d="M8574 1530 L8577 1536" /> 
<path d="M8577 1536 L8577 1544" /> 
<path d="M8577 1544 L8574 1550" /> 
<path d="M8574 1550 L8571 1553" /> 
<path d="M8571 1553 L8565 1556" /> 
<path d="M8565 1556 L8542 1556" /> 
<g style = "stroke-linecap:round;" > 
<path d="M8542 1556 L8542 1556" /> 
</g><path d="M8602 1553 L8622 1553" /> 
<g style = "stroke-linecap:round;" > 
<path d="M8622 1553 L8622 1553" /> 
</g><path d="M8631 1584 L8602 1584" /> 
<path d="M8602 1584 L8602 1524" /> 
<path d="M8602 1524 L8631 1524" /> 
<g style = "stroke-linecap:round;" > 
<path d="M8631 1524 L8631 1524" /> 
</g><path d="M8676 1553 L8656 1553" /> 
<g style = "stroke-linecap:round;" > 
<path d="M8656 1553 L8656 1553" /> 
</g><path d="M8656 1584 L8656 1524" /> 
<path d="M8656 1524 L8685 1524" /> 
<g style = "stroke-linecap:round;" > 
<path d="M8685 1524 L8685 1524" /> 
</g><path d="M8693 1590 L8739 1590" /> 
<g style = "stroke-linecap:round;" > 
<path d="M8739 1590 L8739 1590" /> 
</g><path d="M8750 1567 L8779 1567" /> 
<g style = "stroke-linecap:round;" > 
<path d="M8779 1567 L8779 1567" /> 
</g><path d="M8745 1584 L8765 1524" /> 
<path d="M8765 1524 L8785 1584" /> 
<g style = "stroke-linecap:round;" > 
<path d="M8785 1584 L8785 1584" /> 
</g><path d="M8824 1553 L8833 1556" /> 
<path d="M8833 1556 L8836 1559" /> 
<path d="M8836 1559 L8839 1564" /> 
<path d="M8839 1564 L8839 1573" /> 
<path d="M8839 1573 L8836 1579" /> 
<path d="M8836 1579 L8833 1581" /> 
<path d="M8833 1581 L8827 1584" /> 
<path d="M8827 1584 L8804 1584" /> 
<path d="M8804 1584 L8804 1524" /> 
<path d="M8804 1524 L8824 1524" /> 
<path d="M8824 1524 L8830 1527" /> 
<path d="M8830 1527 L8833 1530" /> 
<path d="M8833 1530 L8836 1536" /> 
<path d="M8836 1536 L8836 1541" /> 
<path d="M8836 1541 L8833 1547" /> 
<path d="M8833 1547 L8830 1550" /> 
<path d="M8830 1550 L8824 1553" /> 
<path d="M8824 1553 L8804 1553" /> 
<g style = "stroke-linecap:round;" > 
<path d="M8804 1553 L8804 1553" /> 
</g><path d="M8316 1684 L8316 1624" /> 
<path d="M8316 1624 L8331 1624" /> 
<path d="M8331 1624 L8339 1627" /> 
<path d="M8339 1627 L8345 1633" /> 
<path d="M8345 1633 L8348 1639" /> 
<path d="M8348 1639 L8351 1650" /> 
<path d="M8351 1650 L8351 1659" /> 
<path d="M8351 1659 L8348 1670" /> 
<path d="M8348 1670 L8345 1676" /> 
<path d="M8345 1676 L8339 1681" /> 
<path d="M8339 1681 L8331 1684" /> 
<path d="M8331 1684 L8316 1684" /> 
<path d="M8373 1667 L8402 1667" /> 
<g style = "stroke-linecap:round;" > 
<path d="M8402 1667 L8402 1667" /> 
</g><path d="M8368 1684 L8388 1624" /> 
<path d="M8388 1624 L8408 1684" /> 
<g style = "stroke-linecap:round;" > 
<path d="M8408 1684 L8408 1684" /> 
</g><path d="M8462 1679 L8459 1681" /> 
<path d="M8459 1681 L8450 1684" /> 
<path d="M8450 1684 L8444 1684" /> 
<path d="M8444 1684 L8436 1681" /> 
<path d="M8436 1681 L8430 1676" /> 
<path d="M8430 1676 L8427 1670" /> 
<path d="M8427 1670 L8424 1659" /> 
<path d="M8424 1659 L8424 1650" /> 
<path d="M8424 1650 L8427 1639" /> 
<path d="M8427 1639 L8430 1633" /> 
<path d="M8430 1633 L8436 1627" /> 
<path d="M8436 1627 L8444 1624" /> 
<path d="M8444 1624 L8450 1624" /> 
<path d="M8450 1624 L8459 1627" /> 
<path d="M8459 1627 L8462 1630" /> 
<g style = "stroke-linecap:round;" > 
<path d="M8462 1630 L8462 1630" /> 
</g><path d="M8473 1690 L8519 1690" /> 
<g style = "stroke-linecap:round;" > 
<path d="M8519 1690 L8519 1690" /> 
</g><path d="M8568 1684 L8548 1656" /> 
<g style = "stroke-linecap:round;" > 
<path d="M8548 1656 L8548 1656" /> 
</g><path d="M8533 1684 L8533 1624" /> 
<path d="M8533 1624 L8556 1624" /> 
<path d="M8556 1624 L8562 1627" /> 
<path d="M8562 1627 L8565 1630" /> 
<path d="M8565 1630 L8568 1636" /> 
<path d="M8568 1636 L8568 1644" /> 
<path d="M8568 1644 L8565 1650" /> 
<path d="M8565 1650 L8562 1653" /> 
<path d="M8562 1653 L8556 1656" /> 
<path d="M8556 1656 L8533 1656" /> 
<g style = "stroke-linecap:round;" > 
<path d="M8533 1656 L8533 1656" /> 
</g><path d="M8593 1653 L8613 1653" /> 
<g style = "stroke-linecap:round;" > 
<path d="M8613 1653 L8613 1653" /> 
</g><path d="M8622 1684 L8593 1684" /> 
<path d="M8593 1684 L8593 1624" /> 
<path d="M8593 1624 L8622 1624" /> 
<g style = "stroke-linecap:round;" > 
<path d="M8622 1624 L8622 1624" /> 
</g><path d="M8667 1653 L8647 1653" /> 
<g style = "stroke-linecap:round;" > 
<path d="M8647 1653 L8647 1653" /> 
</g><path d="M8647 1684 L8647 1624" /> 
<path d="M8647 1624 L8676 1624" /> 
<g style = "stroke-linecap:round;" > 
<path d="M8676 1624 L8676 1624" /> 
</g><path d="M8684 1690 L8730 1690" /> 
<g style = "stroke-linecap:round;" > 
<path d="M8730 1690 L8730 1690" /> 
</g><path d="M8779 1679 L8776 1681" /> 
<path d="M8776 1681 L8767 1684" /> 
<path d="M8767 1684 L8761 1684" /> 
<path d="M8761 1684 L8753 1681" /> 
<path d="M8753 1681 L8747 1676" /> 
<path d="M8747 1676 L8744 1670" /> 
<path d="M8744 1670 L8741 1659" /> 
<path d="M8741 1659 L8741 1650" /> 
<path d="M8741 1650 L8744 1639" /> 
<path d="M8744 1639 L8747 1633" /> 
<path d="M8747 1633 L8753 1627" /> 
<path d="M8753 1627 L8761 1624" /> 
<path d="M8761 1624 L8767 1624" /> 
<path d="M8767 1624 L8776 1627" /> 
<path d="M8776 1627 L8779 1630" /> 
<g style = "stroke-linecap:round;" > 
<path d="M8779 1630 L8779 1630" /> 
</g><path d="M8804 1684 L8804 1624" /> 
<path d="M8804 1624 L8819 1624" /> 
<path d="M8819 1624 L8827 1627" /> 
<path d="M8827 1627 L8833 1633" /> 
<path d="M8833 1633 L8836 1639" /> 
<path d="M8836 1639 L8839 1650" /> 
<path d="M8839 1650 L8839 1659" /> 
<path d="M8839 1659 L8836 1670" /> 
<path d="M8836 1670 L8833 1676" /> 
<path d="M8833 1676 L8827 1681" /> 
<path d="M8827 1681 L8819 1684" /> 
<path d="M8819 1684 L8804 1684" /> 
<path d="M8662 1724 L8682 1784" /> 
<path d="M8682 1784 L8702 1724" /> 
<g style = "stroke-linecap:round;" > 
<path d="M8702 1724 L8702 1724" /> 
</g><path d="M8721 1784 L8721 1724" /> 
<g style = "stroke-linecap:round;" > 
<path d="M8721 1724 L8721 1724" /> 
</g><path d="M8750 1784 L8750 1724" /> 
<path d="M8750 1724 L8785 1784" /> 
<path d="M8785 1784 L8785 1724" /> 
<g style = "stroke-linecap:round;" > 
<path d="M8785 1724 L8785 1724" /> 
</g><path d="M8810 1767 L8839 1767" /> 
<g style = "stroke-linecap:round;" > 
<path d="M8839 1767 L8839 1767" /> 
</g><path d="M8805 1784 L8825 1724" /> 
<path d="M8825 1724 L8845 1784" /> 
<g style = "stroke-linecap:round;" > 
<path d="M8845 1784 L8845 1784" /> 
</g><path d="M8653 1824 L8673 1884" /> 
<path d="M8673 1884 L8693 1824" /> 
<g style = "stroke-linecap:round;" > 
<path d="M8693 1824 L8693 1824" /> 
</g><path d="M8712 1884 L8712 1824" /> 
<g style = "stroke-linecap:round;" > 
<path d="M8712 1824 L8712 1824" /> 
</g><path d="M8741 1884 L8741 1824" /> 
<path d="M8741 1824 L8776 1884" /> 
<path d="M8776 1884 L8776 1824" /> 
<g style = "stroke-linecap:round;" > 
<path d="M8776 1824 L8776 1824" /> 
</g><path d="M8824 1853 L8833 1856" /> 
<path d="M8833 1856 L8836 1859" /> 
<path d="M8836 1859 L8839 1864" /> 
<path d="M8839 1864 L8839 1873" /> 
<path d="M8839 1873 L8836 1879" /> 
<path d="M8836 1879 L8833 1881" /> 
<path d="M8833 1881 L8827 1884" /> 
<path d="M8827 1884 L8804 1884" /> 
<path d="M8804 1884 L8804 1824" /> 
<path d="M8804 1824 L8824 1824" /> 
<path d="M8824 1824 L8830 1827" /> 
<path d="M8830 1827 L8833 1830" /> 
<path d="M8833 1830 L8836 1836" /> 
<path d="M8836 1836 L8836 1841" /> 
<path d="M8836 1841 L8833 1847" /> 
<path d="M8833 1847 L8830 1850" /> 
<path d="M8830 1850 L8824 1853" /> 
<path d="M8824 1853 L8804 1853" /> 
<g style = "stroke-linecap:round;" > 
<path d="M8804 1853 L8804 1853" /> 
</g><ellipse cx="8800" cy="2100" rx="20" ry="20"  /> 
<path d="M8800 2150 L8800 2120" /> 
<path d="M8800 2120 L8800 2120" /> 
<g style = "stroke-linecap:round;" > 
<path d="M8800 2120 L8800 2120" /> 
</g></g>
<g style="fill:#000000; fill-opacity:0.0; 
  stroke:#000000; stroke-linecap:round; stroke-linejoin:round; stroke-opacity:1.0; stroke-opacity:1.0; stroke-width:5" 
   transform="translate(0 0) scale(1 1)">
<path d="M8760 2030 L8770 2060" /> 
<path d="M8770 2060 L8780 2030" /> 
<g style = "stroke-linecap:round;" > 
<path d="M8780 2030 L8780 2030" /> 
</g><path d="M8807 2057 L8806 2059" /> 
<path d="M8806 2059 L8802 2060" /> 
<path d="M8802 2060 L8799 2060" /> 
<path d="M8799 2060 L8794 2059" /> 
<path d="M8794 2059 L8792 2056" /> 
<path d="M8792 2056 L8790 2053" /> 
<path d="M8790 2053 L8789 2047" /> 
<path d="M8789 2047 L8789 2043" /> 
<path d="M8789 2043 L8790 2037" /> 
<path d="M8790 2037 L8792 2034" /> 
<path d="M8792 2034 L8794 2032" /> 
<path d="M8794 2032 L8799 2030" /> 
<path d="M8799 2030 L8802 2030" /> 
<path d="M8802 2030 L8806 2032" /> 
<path d="M8806 2032 L8807 2033" /> 
<g style = "stroke-linecap:round;" > 
<path d="M8807 2033 L8807 2033" /> 
</g><path d="M8837 2057 L8836 2059" /> 
<path d="M8836 2059 L8832 2060" /> 
<path d="M8832 2060 L8829 2060" /> 
<path d="M8829 2060 L8824 2059" /> 
<path d="M8824 2059 L8822 2056" /> 
<path d="M8822 2056 L8820 2053" /> 
<path d="M8820 2053 L8819 2047" /> 
<path d="M8819 2047 L8819 2043" /> 
<path d="M8819 2043 L8820 2037" /> 
<path d="M8820 2037 L8822 2034" /> 
<path d="M8822 2034 L8824 2032" /> 
<path d="M8824 2032 L8829 2030" /> 
<path d="M8829 2030 L8832 2030" /> 
<path d="M8832 2030 L8836 2032" /> 
<path d="M8836 2032 L8837 2033" /> 
<g style = "stroke-linecap:round;" > 
<path d="M8837 2033 L8837 2033" /> 
</g></g>
<g style="fill:#000000; fill-opacity:0.0; 
  stroke:#000000; stroke-linecap:round; stroke-linejoin:round; stroke-opacity:1.0; stroke-opacity:1.0; stroke-width:10" 
   transform="translate(0 0) scale(1 1)">
<path d="M8600 2100 L8650 2150" /> 
<path d="M8650 2150 L8700 2100" /> 
<path d="M8700 2100 L8600 2100" /> 
<path d="M8226 1676 L8274 1724" /> 
<path d="M8274 1676 L8226 1724" /> 
<path d="M8226 1576 L8274 1624" /> 
<path d="M8274 1576 L8226 1624" /> 
<polygon style="fill-rule:evenodd; " 
points="6650,1650
6650,1650
6650,1950
6450,1950
6450,1650
" /> 
<ellipse cx="6685" cy="1700" rx="35" ry="35"  /> 
<path d="M6720 1700 L6900 1700" /> 
<path d="M6793 1684 L6758 1684" /> 
<g style = "stroke-linecap:round;" > 
<path d="M6758 1684 L6758 1684" /> 
</g><path d="M6776 1684 L6776 1624" /> 
<path d="M6776 1624 L6770 1633" /> 
<path d="M6770 1633 L6764 1639" /> 
<path d="M6764 1639 L6758 1641" /> 
<g style = "stroke-linecap:round;" > 
<path d="M6758 1641 L6758 1641" /> 
</g><ellipse cx="6685" cy="1800" rx="35" ry="35"  /> 
<path d="M6720 1800 L6900 1800" /> 
<path d="M6758 1730 L6761 1727" /> 
<path d="M6761 1727 L6767 1724" /> 
<path d="M6767 1724 L6781 1724" /> 
<path d="M6781 1724 L6787 1727" /> 
<path d="M6787 1727 L6790 1730" /> 
<path d="M6790 1730 L6793 1736" /> 
<path d="M6793 1736 L6793 1741" /> 
<path d="M6793 1741 L6790 1750" /> 
<path d="M6790 1750 L6756 1784" /> 
<path d="M6756 1784 L6793 1784" /> 
<g style = "stroke-linecap:round;" > 
<path d="M6793 1784 L6793 1784" /> 
</g><ellipse cx="6685" cy="1900" rx="35" ry="35"  /> 
<path d="M6720 1900 L6900 1900" /> 
<path d="M6756 1824 L6793 1824" /> 
<path d="M6793 1824 L6773 1847" /> 
<path d="M6773 1847 L6781 1847" /> 
<path d="M6781 1847 L6787 1850" /> 
<path d="M6787 1850 L6790 1853" /> 
<path d="M6790 1853 L6793 1859" /> 
<path d="M6793 1859 L6793 1873" /> 
<path d="M6793 1873 L6790 1879" /> 
<path d="M6790 1879 L6787 1881" /> 
<path d="M6787 1881 L6781 1884" /> 
<path d="M6781 1884 L6764 1884" /> 
<path d="M6764 1884 L6758 1881" /> 
<path d="M6758 1881 L6756 1879" /> 
<g style = "stroke-linecap:round;" > 
<path d="M6756 1879 L6756 1879" /> 
</g></g>
<g style="fill:#000000; fill-opacity:0.0; 
  stroke:#000000; stroke-linecap:round; stroke-linejoin:round; stroke-opacity:1.0; stroke-opacity:1.0; stroke-width:8" 
   transform="translate(0 0) scale(1 1)">
<path d="M6624 1837 L6574 1837" /> 
<path d="M6574 1837 L6574 1818" /> 
<path d="M6574 1818 L6577 1813" /> 
<path d="M6577 1813 L6579 1811" /> 
<path d="M6579 1811 L6584 1809" /> 
<path d="M6584 1809 L6591 1809" /> 
<path d="M6591 1809 L6596 1811" /> 
<path d="M6596 1811 L6598 1813" /> 
<path d="M6598 1813 L6600 1818" /> 
<path d="M6600 1818 L6600 1837" /> 
<g style = "stroke-linecap:round;" > 
<path d="M6600 1837 L6600 1837" /> 
</g><path d="M6624 1761 L6624 1789" /> 
<g style = "stroke-linecap:round;" > 
<path d="M6624 1789 L6624 1789" /> 
</g><path d="M6624 1775 L6574 1775" /> 
<path d="M6574 1775 L6581 1780" /> 
<path d="M6581 1780 L6586 1785" /> 
<path d="M6586 1785 L6589 1789" /> 
<g style = "stroke-linecap:round;" > 
<path d="M6589 1789 L6589 1789" /> 
</g></g>
<g style="fill:#000000; fill-opacity:0.0; 
  stroke:#000000; stroke-linecap:round; stroke-linejoin:round; stroke-opacity:1.0; stroke-opacity:1.0; stroke-width:7" 
   transform="translate(0 0) scale(1 1)">
<path d="M6508 1879 L6508 1860" /> 
<g style = "stroke-linecap:round;" > 
<path d="M6508 1860 L6508 1860" /> 
</g><path d="M6519 1883 L6479 1870" /> 
<path d="M6479 1870 L6519 1857" /> 
<g style = "stroke-linecap:round;" > 
<path d="M6519 1857 L6519 1857" /> 
</g><path d="M6479 1843 L6512 1843" /> 
<path d="M6512 1843 L6515 1842" /> 
<path d="M6515 1842 L6517 1840" /> 
<path d="M6517 1840 L6519 1836" /> 
<path d="M6519 1836 L6519 1828" /> 
<path d="M6519 1828 L6517 1824" /> 
<path d="M6517 1824 L6515 1823" /> 
<path d="M6515 1823 L6512 1821" /> 
<path d="M6512 1821 L6479 1821" /> 
<g style = "stroke-linecap:round;" > 
<path d="M6479 1821 L6479 1821" /> 
</g><path d="M6519 1801 L6479 1801" /> 
<path d="M6479 1801 L6479 1792" /> 
<path d="M6479 1792 L6481 1786" /> 
<path d="M6481 1786 L6485 1782" /> 
<path d="M6485 1782 L6489 1781" /> 
<path d="M6489 1781 L6496 1779" /> 
<path d="M6496 1779 L6502 1779" /> 
<path d="M6502 1779 L6510 1781" /> 
<path d="M6510 1781 L6513 1782" /> 
<path d="M6513 1782 L6517 1786" /> 
<path d="M6517 1786 L6519 1792" /> 
<path d="M6519 1792 L6519 1801" /> 
<path d="M6519 1761 L6479 1761" /> 
<g style = "stroke-linecap:round;" > 
<path d="M6479 1761 L6479 1761" /> 
</g><path d="M6479 1735 L6479 1727" /> 
<path d="M6479 1727 L6481 1723" /> 
<path d="M6481 1723 L6485 1720" /> 
<path d="M6485 1720 L6493 1718" /> 
<path d="M6493 1718 L6506 1718" /> 
<path d="M6506 1718 L6513 1720" /> 
<path d="M6513 1720 L6517 1723" /> 
<path d="M6517 1723 L6519 1727" /> 
<path d="M6519 1727 L6519 1735" /> 
<path d="M6519 1735 L6517 1739" /> 
<path d="M6517 1739 L6513 1742" /> 
<path d="M6513 1742 L6506 1744" /> 
<path d="M6506 1744 L6493 1744" /> 
<path d="M6493 1744 L6485 1742" /> 
<path d="M6485 1742 L6481 1739" /> 
<path d="M6481 1739 L6479 1735" /> 
</g>
<g style="fill:#000000; fill-opacity:0.0; 
  stroke:#000000; stroke-linecap:round; stroke-linejoin:round; stroke-opacity:1.0; stroke-opacity:1.0; stroke-width:12" 
   transform="translate(0 0) scale(1 1)">
<polygon style="fill-rule:evenodd; " 
points="8110,2250
8110,2250
8110,2550
8190,2550
8190,2250
" /> 
</g>
<g style="fill:#000000; fill-opacity:0.0; 
  stroke:#000000; stroke-linecap:round; stroke-linejoin:round; stroke-opacity:1.0; stroke-opacity:1.0; stroke-width:10" 
   transform="translate(0 0) scale(1 1)">
<path d="M8150 2250 L8150 2150" /> 
<path d="M8150 2550 L8150 2650" /> 
</g>
<g style="fill:#000000; fill-opacity:0.0; 
  stroke:#000000; stroke-linecap:round; stroke-linejoin:round; stroke-opacity:1.0; stroke-opacity:1.0; stroke-width:8" 
   transform="translate(0 0) scale(1 1)">
<path d="M8266 2409 L8242 2425" /> 
<g style = "stroke-linecap:round;" > 
<path d="M8242 2425 L8242 2425" /> 
</g><path d="M8266 2437 L8216 2437" /> 
<path d="M8216 2437 L8216 2418" /> 
<path d="M8216 2418 L8219 2413" /> 
<path d="M8219 2413 L8221 2411" /> 
<path d="M8221 2411 L8226 2409" /> 
<path d="M8226 2409 L8233 2409" /> 
<path d="M8233 2409 L8238 2411" /> 
<path d="M8238 2411 L8240 2413" /> 
<path d="M8240 2413 L8242 2418" /> 
<path d="M8242 2418 L8242 2437" /> 
<g style = "stroke-linecap:round;" > 
<path d="M8242 2437 L8242 2437" /> 
</g><path d="M8216 2392 L8216 2361" /> 
<path d="M8216 2361 L8235 2378" /> 
<path d="M8235 2378 L8235 2370" /> 
<path d="M8235 2370 L8238 2366" /> 
<path d="M8238 2366 L8240 2363" /> 
<path d="M8240 2363 L8245 2361" /> 
<path d="M8245 2361 L8257 2361" /> 
<path d="M8257 2361 L8261 2363" /> 
<path d="M8261 2363 L8264 2366" /> 
<path d="M8264 2366 L8266 2370" /> 
<path d="M8266 2370 L8266 2385" /> 
<path d="M8266 2385 L8264 2389" /> 
<path d="M8264 2389 L8261 2392" /> 
<g style = "stroke-linecap:round;" > 
<path d="M8261 2392 L8261 2392" /> 
</g><path d="M8133 2440 L8166 2440" /> 
<g style = "stroke-linecap:round;" > 
<path d="M8166 2440 L8166 2440" /> 
</g><path d="M8114 2452 L8150 2463" /> 
<path d="M8150 2463 L8150 2433" /> 
<g style = "stroke-linecap:round;" > 
<path d="M8150 2433 L8150 2433" /> 
</g><path d="M8116 2418 L8116 2385" /> 
<path d="M8116 2385 L8166 2406" /> 
<g style = "stroke-linecap:round;" > 
<path d="M8166 2406 L8166 2406" /> 
</g><path d="M8166 2365 L8116 2365" /> 
<g style = "stroke-linecap:round;" > 
<path d="M8116 2365 L8116 2365" /> 
</g><path d="M8166 2337 L8138 2358" /> 
<g style = "stroke-linecap:round;" > 
<path d="M8138 2358 L8138 2358" /> 
</g><path d="M8116 2337 L8145 2365" /> 
<g style = "stroke-linecap:round;" > 
<path d="M8145 2365 L8145 2365" /> 
</g></g>
<g style="fill:#000000; fill-opacity:0.0; 
  stroke:#000000; stroke-linecap:round; stroke-linejoin:round; stroke-opacity:1.0; stroke-opacity:1.0; stroke-width:12" 
   transform="translate(0 0) scale(1 1)">
<polygon style="fill-rule:evenodd; " 
points="8110,2850
8110,2850
8110,3150
8190,3150
8190,2850
" /> 
</g>
<g style="fill:#000000; fill-opacity:0.0; 
  stroke:#000000; stroke-linecap:round; stroke-linejoin:round; stroke-opacity:1.0; stroke-opacity:1.0; stroke-width:10" 
   transform="translate(0 0) scale(1 1)">
<path d="M8150 2850 L8150 2750" /> 
<path d="M8150 3150 L8150 3250" /> 
</g>
<g style="fill:#000000; fill-opacity:0.0; 
  stroke:#000000; stroke-linecap:round; stroke-linejoin:round; stroke-opacity:1.0; stroke-opacity:1.0; stroke-width:8" 
   transform="translate(0 0) scale(1 1)">
<path d="M8266 3009 L8242 3025" /> 
<g style = "stroke-linecap:round;" > 
<path d="M8242 3025 L8242 3025" /> 
</g><path d="M8266 3037 L8216 3037" /> 
<path d="M8216 3037 L8216 3018" /> 
<path d="M8216 3018 L8219 3013" /> 
<path d="M8219 3013 L8221 3011" /> 
<path d="M8221 3011 L8226 3009" /> 
<path d="M8226 3009 L8233 3009" /> 
<path d="M8233 3009 L8238 3011" /> 
<path d="M8238 3011 L8240 3013" /> 
<path d="M8240 3013 L8242 3018" /> 
<path d="M8242 3018 L8242 3037" /> 
<g style = "stroke-linecap:round;" > 
<path d="M8242 3037 L8242 3037" /> 
</g><path d="M8233 2966 L8266 2966" /> 
<g style = "stroke-linecap:round;" > 
<path d="M8266 2966 L8266 2966" /> 
</g><path d="M8214 2978 L8250 2989" /> 
<path d="M8250 2989 L8250 2959" /> 
<g style = "stroke-linecap:round;" > 
<path d="M8250 2959 L8250 2959" /> 
</g><path d="M8133 3040 L8166 3040" /> 
<g style = "stroke-linecap:round;" > 
<path d="M8166 3040 L8166 3040" /> 
</g><path d="M8114 3052 L8150 3063" /> 
<path d="M8150 3063 L8150 3033" /> 
<g style = "stroke-linecap:round;" > 
<path d="M8150 3033 L8150 3033" /> 
</g><path d="M8116 3018 L8116 2985" /> 
<path d="M8116 2985 L8166 3006" /> 
<g style = "stroke-linecap:round;" > 
<path d="M8166 3006 L8166 3006" /> 
</g><path d="M8166 2965 L8116 2965" /> 
<g style = "stroke-linecap:round;" > 
<path d="M8116 2965 L8116 2965" /> 
</g><path d="M8166 2937 L8138 2958" /> 
<g style = "stroke-linecap:round;" > 
<path d="M8138 2958 L8138 2958" /> 
</g><path d="M8116 2937 L8145 2965" /> 
<g style = "stroke-linecap:round;" > 
<path d="M8145 2965 L8145 2965" /> 
</g></g>
<g style="fill:#000000; fill-opacity:0.0; 
  stroke:#000000; stroke-linecap:round; stroke-linejoin:round; stroke-opacity:1.0; stroke-opacity:1.0; stroke-width:10" 
   transform="translate(0 0) scale(1 1)">
<ellipse cx="8150" cy="2050" rx="20" ry="20"  /> 
<path d="M8150 2100 L8150 2070" /> 
<path d="M8150 2070 L8150 2070" /> 
<g style = "stroke-linecap:round;" > 
<path d="M8150 2070 L8150 2070" /> 
</g></g>
<g style="fill:#000000; fill-opacity:0.0; 
  stroke:#000000; stroke-linecap:round; stroke-linejoin:round; stroke-opacity:1.0; stroke-opacity:1.0; stroke-width:5" 
   transform="translate(0 0) scale(1 1)">
<path d="M8110 1980 L8120 2010" /> 
<path d="M8120 2010 L8130 1980" /> 
<g style = "stroke-linecap:round;" > 
<path d="M8130 1980 L8130 1980" /> 
</g><path d="M8157 2007 L8156 2009" /> 
<path d="M8156 2009 L8152 2010" /> 
<path d="M8152 2010 L8149 2010" /> 
<path d="M8149 2010 L8144 2009" /> 
<path d="M8144 2009 L8142 2006" /> 
<path d="M8142 2006 L8140 2003" /> 
<path d="M8140 2003 L8139 1997" /> 
<path d="M8139 1997 L8139 1993" /> 
<path d="M8139 1993 L8140 1987" /> 
<path d="M8140 1987 L8142 1984" /> 
<path d="M8142 1984 L8144 1982" /> 
<path d="M8144 1982 L8149 1980" /> 
<path d="M8149 1980 L8152 1980" /> 
<path d="M8152 1980 L8156 1982" /> 
<path d="M8156 1982 L8157 1983" /> 
<g style = "stroke-linecap:round;" > 
<path d="M8157 1983 L8157 1983" /> 
</g><path d="M8187 2007 L8186 2009" /> 
<path d="M8186 2009 L8182 2010" /> 
<path d="M8182 2010 L8179 2010" /> 
<path d="M8179 2010 L8174 2009" /> 
<path d="M8174 2009 L8172 2006" /> 
<path d="M8172 2006 L8170 2003" /> 
<path d="M8170 2003 L8169 1997" /> 
<path d="M8169 1997 L8169 1993" /> 
<path d="M8169 1993 L8170 1987" /> 
<path d="M8170 1987 L8172 1984" /> 
<path d="M8172 1984 L8174 1982" /> 
<path d="M8174 1982 L8179 1980" /> 
<path d="M8179 1980 L8182 1980" /> 
<path d="M8182 1980 L8186 1982" /> 
<path d="M8186 1982 L8187 1983" /> 
<g style = "stroke-linecap:round;" > 
<path d="M8187 1983 L8187 1983" /> 
</g></g>
<g style="fill:#000000; fill-opacity:0.0; 
  stroke:#000000; stroke-linecap:round; stroke-linejoin:round; stroke-opacity:1.0; stroke-opacity:1.0; stroke-width:10" 
   transform="translate(0 0) scale(1 1)">
<path d="M8100 3350 L8150 3400" /> 
<path d="M8150 3400 L8200 3350" /> 
<path d="M8200 3350 L8100 3350" /> 
</g>
<g style="fill:#000000; fill-opacity:0.0; 
  stroke:#000000; stroke-linecap:round; stroke-linejoin:round; stroke-opacity:1.0; stroke-opacity:1.0; stroke-width:20" 
   transform="translate(0 0) scale(1 1)">
<path d="M7430 1780 L7430 1620" /> 
<g style = "stroke-linecap:round;" > 
<path d="M7430 1620 L7430 1620" /> 
</g><path d="M7370 1780 L7370 1620" /> 
<g style = "stroke-linecap:round;" > 
<path d="M7370 1620 L7370 1620" /> 
</g></g>
<g style="fill:#000000; fill-opacity:0.0; 
  stroke:#000000; stroke-linecap:round; stroke-linejoin:round; stroke-opacity:1.0; stroke-opacity:1.0; stroke-width:10" 
   transform="translate(0 0) scale(1 1)">
<path d="M7370 1700 L7200 1700" /> 
<path d="M7430 1700 L7600 1700" /> 
</g>
<g style="fill:#000000; fill-opacity:0.0; 
  stroke:#000000; stroke-linecap:round; stroke-linejoin:round; stroke-opacity:1.0; stroke-opacity:1.0; stroke-width:8" 
   transform="translate(0 0) scale(1 1)">
<path d="M7292 1669 L7290 1672" /> 
<path d="M7290 1672 L7283 1674" /> 
<path d="M7283 1674 L7278 1674" /> 
<path d="M7278 1674 L7271 1672" /> 
<path d="M7271 1672 L7266 1667" /> 
<path d="M7266 1667 L7264 1662" /> 
<path d="M7264 1662 L7262 1653" /> 
<path d="M7262 1653 L7262 1646" /> 
<path d="M7262 1646 L7264 1636" /> 
<path d="M7264 1636 L7266 1631" /> 
<path d="M7266 1631 L7271 1627" /> 
<path d="M7271 1627 L7278 1624" /> 
<path d="M7278 1624 L7283 1624" /> 
<path d="M7283 1624 L7290 1627" /> 
<path d="M7290 1627 L7292 1629" /> 
<g style = "stroke-linecap:round;" > 
<path d="M7292 1629 L7292 1629" /> 
</g><path d="M7340 1674 L7312 1674" /> 
<g style = "stroke-linecap:round;" > 
<path d="M7312 1674 L7312 1674" /> 
</g><path d="M7326 1674 L7326 1624" /> 
<path d="M7326 1624 L7321 1631" /> 
<path d="M7321 1631 L7316 1636" /> 
<path d="M7316 1636 L7312 1639" /> 
<g style = "stroke-linecap:round;" > 
<path d="M7312 1639 L7312 1639" /> 
</g><path d="M7495 1674 L7467 1674" /> 
<g style = "stroke-linecap:round;" > 
<path d="M7467 1674 L7467 1674" /> 
</g><path d="M7481 1674 L7481 1624" /> 
<path d="M7481 1624 L7476 1631" /> 
<path d="M7476 1631 L7471 1636" /> 
<path d="M7471 1636 L7467 1639" /> 
<g style = "stroke-linecap:round;" > 
<path d="M7467 1639 L7467 1639" /> 
</g><path d="M7538 1641 L7538 1674" /> 
<g style = "stroke-linecap:round;" > 
<path d="M7538 1674 L7538 1674" /> 
</g><path d="M7517 1641 L7517 1667" /> 
<path d="M7517 1667 L7519 1672" /> 
<path d="M7519 1672 L7524 1674" /> 
<path d="M7524 1674 L7531 1674" /> 
<path d="M7531 1674 L7536 1672" /> 
<path d="M7536 1672 L7538 1669" /> 
<g style = "stroke-linecap:round;" > 
<path d="M7538 1669 L7538 1669" /> 
</g></g>
<g style="fill:#000000; fill-opacity:0.0; 
  stroke:#000000; stroke-linecap:round; stroke-linejoin:round; stroke-opacity:1.0; stroke-opacity:1.0; stroke-width:10" 
   transform="translate(0 0) scale(1 1)">
<path d="M7000 1700 L7050 1750" /> 
<path d="M7050 1750 L7100 1700" /> 
<path d="M7100 1700 L7000 1700" /> 
</g>
<g style="fill:#000000; fill-opacity:0.0; 
  stroke:#000000; stroke-linecap:round; stroke-linejoin:round; stroke-opacity:1.0; stroke-opacity:1.0; stroke-width:12" 
   transform="translate(0 0) scale(1 1)">
<polygon style="fill-rule:evenodd; " 
points="7660,2200
7660,2200
7660,2500
7740,2500
7740,2200
" /> 
</g>
<g style="fill:#000000; fill-opacity:0.0; 
  stroke:#000000; stroke-linecap:round; stroke-linejoin:round; stroke-opacity:1.0; stroke-opacity:1.0; stroke-width:10" 
   transform="translate(0 0) scale(1 1)">
<path d="M7700 2200 L7700 2100" /> 
<path d="M7700 2500 L7700 2600" /> 
</g>
<g style="fill:#000000; fill-opacity:0.0; 
  stroke:#000000; stroke-linecap:round; stroke-linejoin:round; stroke-opacity:1.0; stroke-opacity:1.0; stroke-width:8" 
   transform="translate(0 0) scale(1 1)">
<path d="M7796 2359 L7772 2375" /> 
<g style = "stroke-linecap:round;" > 
<path d="M7772 2375 L7772 2375" /> 
</g><path d="M7796 2387 L7746 2387" /> 
<path d="M7746 2387 L7746 2368" /> 
<path d="M7746 2368 L7749 2363" /> 
<path d="M7749 2363 L7751 2361" /> 
<path d="M7751 2361 L7756 2359" /> 
<path d="M7756 2359 L7763 2359" /> 
<path d="M7763 2359 L7768 2361" /> 
<path d="M7768 2361 L7770 2363" /> 
<path d="M7770 2363 L7772 2368" /> 
<path d="M7772 2368 L7772 2387" /> 
<g style = "stroke-linecap:round;" > 
<path d="M7772 2387 L7772 2387" /> 
</g><path d="M7796 2311 L7796 2339" /> 
<g style = "stroke-linecap:round;" > 
<path d="M7796 2339 L7796 2339" /> 
</g><path d="M7796 2325 L7746 2325" /> 
<path d="M7746 2325 L7753 2330" /> 
<path d="M7753 2330 L7758 2335" /> 
<path d="M7758 2335 L7761 2339" /> 
<g style = "stroke-linecap:round;" > 
<path d="M7761 2339 L7761 2339" /> 
</g><path d="M7716 2409 L7716 2437" /> 
<g style = "stroke-linecap:round;" > 
<path d="M7716 2437 L7716 2437" /> 
</g><path d="M7716 2423 L7666 2423" /> 
<path d="M7666 2423 L7673 2428" /> 
<path d="M7673 2428 L7678 2433" /> 
<path d="M7678 2433 L7681 2437" /> 
<g style = "stroke-linecap:round;" > 
<path d="M7681 2437 L7681 2437" /> 
</g><path d="M7666 2378 L7666 2373" /> 
<path d="M7666 2373 L7669 2368" /> 
<path d="M7669 2368 L7671 2366" /> 
<path d="M7671 2366 L7676 2363" /> 
<path d="M7676 2363 L7685 2361" /> 
<path d="M7685 2361 L7697 2361" /> 
<path d="M7697 2361 L7707 2363" /> 
<path d="M7707 2363 L7711 2366" /> 
<path d="M7711 2366 L7714 2368" /> 
<path d="M7714 2368 L7716 2373" /> 
<path d="M7716 2373 L7716 2378" /> 
<path d="M7716 2378 L7714 2382" /> 
<path d="M7714 2382 L7711 2385" /> 
<path d="M7711 2385 L7707 2387" /> 
<path d="M7707 2387 L7697 2389" /> 
<path d="M7697 2389 L7685 2389" /> 
<path d="M7685 2389 L7676 2387" /> 
<path d="M7676 2387 L7671 2385" /> 
<path d="M7671 2385 L7669 2382" /> 
<path d="M7669 2382 L7666 2378" /> 
<path d="M7666 2330 L7666 2325" /> 
<path d="M7666 2325 L7669 2320" /> 
<path d="M7669 2320 L7671 2318" /> 
<path d="M7671 2318 L7676 2315" /> 
<path d="M7676 2315 L7685 2313" /> 
<path d="M7685 2313 L7697 2313" /> 
<path d="M7697 2313 L7707 2315" /> 
<path d="M7707 2315 L7711 2318" /> 
<path d="M7711 2318 L7714 2320" /> 
<path d="M7714 2320 L7716 2325" /> 
<path d="M7716 2325 L7716 2330" /> 
<path d="M7716 2330 L7714 2334" /> 
<path d="M7714 2334 L7711 2337" /> 
<path d="M7711 2337 L7707 2339" /> 
<path d="M7707 2339 L7697 2341" /> 
<path d="M7697 2341 L7685 2341" /> 
<path d="M7685 2341 L7676 2339" /> 
<path d="M7676 2339 L7671 2337" /> 
<path d="M7671 2337 L7669 2334" /> 
<path d="M7669 2334 L7666 2330" /> 
<path d="M7716 2291 L7666 2291" /> 
<g style = "stroke-linecap:round;" > 
<path d="M7666 2291 L7666 2291" /> 
</g><path d="M7716 2263 L7688 2284" /> 
<g style = "stroke-linecap:round;" > 
<path d="M7688 2284 L7688 2284" /> 
</g><path d="M7666 2263 L7695 2291" /> 
<g style = "stroke-linecap:round;" > 
<path d="M7695 2291 L7695 2291" /> 
</g></g>
<g style="fill:#000000; fill-opacity:0.0; 
  stroke:#000000; stroke-linecap:round; stroke-linejoin:round; stroke-opacity:1.0; stroke-opacity:1.0; stroke-width:12" 
   transform="translate(0 0) scale(1 1)">
<polygon style="fill-rule:evenodd; " 
points="7860,2200
7860,2200
7860,2500
7940,2500
7940,2200
" /> 
</g>
<g style="fill:#000000; fill-opacity:0.0; 
  stroke:#000000; stroke-linecap:round; stroke-linejoin:round; stroke-opacity:1.0; stroke-opacity:1.0; stroke-width:10" 
   transform="translate(0 0) scale(1 1)">
<path d="M7900 2200 L7900 2100" /> 
<path d="M7900 2500 L7900 2600" /> 
</g>
<g style="fill:#000000; fill-opacity:0.0; 
  stroke:#000000; stroke-linecap:round; stroke-linejoin:round; stroke-opacity:1.0; stroke-opacity:1.0; stroke-width:8" 
   transform="translate(0 0) scale(1 1)">
<path d="M8016 2359 L7992 2375" /> 
<g style = "stroke-linecap:round;" > 
<path d="M7992 2375 L7992 2375" /> 
</g><path d="M8016 2387 L7966 2387" /> 
<path d="M7966 2387 L7966 2368" /> 
<path d="M7966 2368 L7969 2363" /> 
<path d="M7969 2363 L7971 2361" /> 
<path d="M7971 2361 L7976 2359" /> 
<path d="M7976 2359 L7983 2359" /> 
<path d="M7983 2359 L7988 2361" /> 
<path d="M7988 2361 L7990 2363" /> 
<path d="M7990 2363 L7992 2368" /> 
<path d="M7992 2368 L7992 2387" /> 
<g style = "stroke-linecap:round;" > 
<path d="M7992 2387 L7992 2387" /> 
</g><path d="M7971 2339 L7969 2337" /> 
<path d="M7969 2337 L7966 2332" /> 
<path d="M7966 2332 L7966 2320" /> 
<path d="M7966 2320 L7969 2316" /> 
<path d="M7969 2316 L7971 2313" /> 
<path d="M7971 2313 L7976 2311" /> 
<path d="M7976 2311 L7981 2311" /> 
<path d="M7981 2311 L7988 2313" /> 
<path d="M7988 2313 L8016 2342" /> 
<path d="M8016 2342 L8016 2311" /> 
<g style = "stroke-linecap:round;" > 
<path d="M8016 2311 L8016 2311" /> 
</g><path d="M7916 2409 L7916 2437" /> 
<g style = "stroke-linecap:round;" > 
<path d="M7916 2437 L7916 2437" /> 
</g><path d="M7916 2423 L7866 2423" /> 
<path d="M7866 2423 L7873 2428" /> 
<path d="M7873 2428 L7878 2433" /> 
<path d="M7878 2433 L7881 2437" /> 
<g style = "stroke-linecap:round;" > 
<path d="M7881 2437 L7881 2437" /> 
</g><path d="M7866 2378 L7866 2373" /> 
<path d="M7866 2373 L7869 2368" /> 
<path d="M7869 2368 L7871 2366" /> 
<path d="M7871 2366 L7876 2363" /> 
<path d="M7876 2363 L7885 2361" /> 
<path d="M7885 2361 L7897 2361" /> 
<path d="M7897 2361 L7907 2363" /> 
<path d="M7907 2363 L7911 2366" /> 
<path d="M7911 2366 L7914 2368" /> 
<path d="M7914 2368 L7916 2373" /> 
<path d="M7916 2373 L7916 2378" /> 
<path d="M7916 2378 L7914 2382" /> 
<path d="M7914 2382 L7911 2385" /> 
<path d="M7911 2385 L7907 2387" /> 
<path d="M7907 2387 L7897 2389" /> 
<path d="M7897 2389 L7885 2389" /> 
<path d="M7885 2389 L7876 2387" /> 
<path d="M7876 2387 L7871 2385" /> 
<path d="M7871 2385 L7869 2382" /> 
<path d="M7869 2382 L7866 2378" /> 
<path d="M7866 2330 L7866 2325" /> 
<path d="M7866 2325 L7869 2320" /> 
<path d="M7869 2320 L7871 2318" /> 
<path d="M7871 2318 L7876 2315" /> 
<path d="M7876 2315 L7885 2313" /> 
<path d="M7885 2313 L7897 2313" /> 
<path d="M7897 2313 L7907 2315" /> 
<path d="M7907 2315 L7911 2318" /> 
<path d="M7911 2318 L7914 2320" /> 
<path d="M7914 2320 L7916 2325" /> 
<path d="M7916 2325 L7916 2330" /> 
<path d="M7916 2330 L7914 2334" /> 
<path d="M7914 2334 L7911 2337" /> 
<path d="M7911 2337 L7907 2339" /> 
<path d="M7907 2339 L7897 2341" /> 
<path d="M7897 2341 L7885 2341" /> 
<path d="M7885 2341 L7876 2339" /> 
<path d="M7876 2339 L7871 2337" /> 
<path d="M7871 2337 L7869 2334" /> 
<path d="M7869 2334 L7866 2330" /> 
<path d="M7916 2291 L7866 2291" /> 
<g style = "stroke-linecap:round;" > 
<path d="M7866 2291 L7866 2291" /> 
</g><path d="M7916 2263 L7888 2284" /> 
<g style = "stroke-linecap:round;" > 
<path d="M7888 2284 L7888 2284" /> 
</g><path d="M7866 2263 L7895 2291" /> 
<g style = "stroke-linecap:round;" > 
<path d="M7895 2291 L7895 2291" /> 
</g></g>
<g style="fill:#000000; fill-opacity:0.0; 
  stroke:#000000; stroke-linecap:round; stroke-linejoin:round; stroke-opacity:1.0; stroke-opacity:1.0; stroke-width:20" 
   transform="translate(0 0) scale(1 1)">
<path d="M7430 2080 L7430 1920" /> 
<g style = "stroke-linecap:round;" > 
<path d="M7430 1920 L7430 1920" /> 
</g><path d="M7370 2080 L7370 1920" /> 
<g style = "stroke-linecap:round;" > 
<path d="M7370 1920 L7370 1920" /> 
</g></g>
<g style="fill:#000000; fill-opacity:0.0; 
  stroke:#000000; stroke-linecap:round; stroke-linejoin:round; stroke-opacity:1.0; stroke-opacity:1.0; stroke-width:10" 
   transform="translate(0 0) scale(1 1)">
<path d="M7370 2000 L7200 2000" /> 
<path d="M7430 2000 L7600 2000" /> 
</g>
<g style="fill:#000000; fill-opacity:0.0; 
  stroke:#000000; stroke-linecap:round; stroke-linejoin:round; stroke-opacity:1.0; stroke-opacity:1.0; stroke-width:8" 
   transform="translate(0 0) scale(1 1)">
<path d="M7292 1969 L7290 1972" /> 
<path d="M7290 1972 L7283 1974" /> 
<path d="M7283 1974 L7278 1974" /> 
<path d="M7278 1974 L7271 1972" /> 
<path d="M7271 1972 L7266 1967" /> 
<path d="M7266 1967 L7264 1962" /> 
<path d="M7264 1962 L7262 1953" /> 
<path d="M7262 1953 L7262 1946" /> 
<path d="M7262 1946 L7264 1936" /> 
<path d="M7264 1936 L7266 1931" /> 
<path d="M7266 1931 L7271 1927" /> 
<path d="M7271 1927 L7278 1924" /> 
<path d="M7278 1924 L7283 1924" /> 
<path d="M7283 1924 L7290 1927" /> 
<path d="M7290 1927 L7292 1929" /> 
<g style = "stroke-linecap:round;" > 
<path d="M7292 1929 L7292 1929" /> 
</g><path d="M7312 1929 L7314 1927" /> 
<path d="M7314 1927 L7319 1924" /> 
<path d="M7319 1924 L7331 1924" /> 
<path d="M7331 1924 L7335 1927" /> 
<path d="M7335 1927 L7338 1929" /> 
<path d="M7338 1929 L7340 1934" /> 
<path d="M7340 1934 L7340 1939" /> 
<path d="M7340 1939 L7338 1946" /> 
<path d="M7338 1946 L7309 1974" /> 
<path d="M7309 1974 L7340 1974" /> 
<g style = "stroke-linecap:round;" > 
<path d="M7340 1974 L7340 1974" /> 
</g><path d="M7495 1974 L7467 1974" /> 
<g style = "stroke-linecap:round;" > 
<path d="M7467 1974 L7467 1974" /> 
</g><path d="M7481 1974 L7481 1924" /> 
<path d="M7481 1924 L7476 1931" /> 
<path d="M7476 1931 L7471 1936" /> 
<path d="M7471 1936 L7467 1939" /> 
<g style = "stroke-linecap:round;" > 
<path d="M7467 1939 L7467 1939" /> 
</g><path d="M7538 1941 L7538 1974" /> 
<g style = "stroke-linecap:round;" > 
<path d="M7538 1974 L7538 1974" /> 
</g><path d="M7517 1941 L7517 1967" /> 
<path d="M7517 1967 L7519 1972" /> 
<path d="M7519 1972 L7524 1974" /> 
<path d="M7524 1974 L7531 1974" /> 
<path d="M7531 1974 L7536 1972" /> 
<path d="M7536 1972 L7538 1969" /> 
<g style = "stroke-linecap:round;" > 
<path d="M7538 1969 L7538 1969" /> 
</g></g>
<g style="fill:#000000; fill-opacity:0.0; 
  stroke:#000000; stroke-linecap:round; stroke-linejoin:round; stroke-opacity:1.0; stroke-opacity:1.0; stroke-width:20" 
   transform="translate(0 0) scale(1 1)">
<path d="M7820 3030 L7980 3030" /> 
<g style = "stroke-linecap:round;" > 
<path d="M7980 3030 L7980 3030" /> 
</g><path d="M7820 2970 L7980 2970" /> 
<g style = "stroke-linecap:round;" > 
<path d="M7980 2970 L7980 2970" /> 
</g></g>
<g style="fill:#000000; fill-opacity:0.0; 
  stroke:#000000; stroke-linecap:round; stroke-linejoin:round; stroke-opacity:1.0; stroke-opacity:1.0; stroke-width:10" 
   transform="translate(0 0) scale(1 1)">
<path d="M7900 2970 L7900 2800" /> 
<path d="M7900 3030 L7900 3200" /> 
</g>
<g style="fill:#000000; fill-opacity:0.0; 
  stroke:#000000; stroke-linecap:round; stroke-linejoin:round; stroke-opacity:1.0; stroke-opacity:1.0; stroke-width:8" 
   transform="translate(0 0) scale(1 1)">
<path d="M7990 2911 L7988 2914" /> 
<path d="M7988 2914 L7981 2916" /> 
<path d="M7981 2916 L7976 2916" /> 
<path d="M7976 2916 L7969 2914" /> 
<path d="M7969 2914 L7964 2909" /> 
<path d="M7964 2909 L7962 2904" /> 
<path d="M7962 2904 L7960 2895" /> 
<path d="M7960 2895 L7960 2888" /> 
<path d="M7960 2888 L7962 2878" /> 
<path d="M7962 2878 L7964 2873" /> 
<path d="M7964 2873 L7969 2869" /> 
<path d="M7969 2869 L7976 2866" /> 
<path d="M7976 2866 L7981 2866" /> 
<path d="M7981 2866 L7988 2869" /> 
<path d="M7988 2869 L7990 2871" /> 
<g style = "stroke-linecap:round;" > 
<path d="M7990 2871 L7990 2871" /> 
</g><path d="M8007 2866 L8038 2866" /> 
<path d="M8038 2866 L8021 2885" /> 
<path d="M8021 2885 L8029 2885" /> 
<path d="M8029 2885 L8033 2888" /> 
<path d="M8033 2888 L8036 2890" /> 
<path d="M8036 2890 L8038 2895" /> 
<path d="M8038 2895 L8038 2907" /> 
<path d="M8038 2907 L8036 2911" /> 
<path d="M8036 2911 L8033 2914" /> 
<path d="M8033 2914 L8029 2916" /> 
<path d="M8029 2916 L8014 2916" /> 
<path d="M8014 2916 L8010 2914" /> 
<path d="M8010 2914 L8007 2911" /> 
<g style = "stroke-linecap:round;" > 
<path d="M8007 2911 L8007 2911" /> 
</g><path d="M7988 3116 L7960 3116" /> 
<g style = "stroke-linecap:round;" > 
<path d="M7960 3116 L7960 3116" /> 
</g><path d="M7974 3116 L7974 3066" /> 
<path d="M7974 3066 L7969 3073" /> 
<path d="M7969 3073 L7964 3078" /> 
<path d="M7964 3078 L7960 3081" /> 
<g style = "stroke-linecap:round;" > 
<path d="M7960 3081 L7960 3081" /> 
</g><path d="M8031 3083 L8031 3116" /> 
<g style = "stroke-linecap:round;" > 
<path d="M8031 3116 L8031 3116" /> 
</g><path d="M8010 3083 L8010 3109" /> 
<path d="M8010 3109 L8012 3114" /> 
<path d="M8012 3114 L8017 3116" /> 
<path d="M8017 3116 L8024 3116" /> 
<path d="M8024 3116 L8029 3114" /> 
<path d="M8029 3114 L8031 3111" /> 
<g style = "stroke-linecap:round;" > 
<path d="M8031 3111 L8031 3111" /> 
</g></g>
<g style="fill:#000000; fill-opacity:1.0; 
  stroke:#000000; stroke-linecap:round; stroke-linejoin:round; stroke-opacity:1.0; stroke-opacity:1.0; stroke-width:0" 
   transform="translate(0 0) scale(1 1)">
<ellipse cx="8150" cy="3300" rx="16" ry="16"  /> 
</g>
<g style="fill:#000000; fill-opacity:1.0; 
  stroke:#000000; stroke-linecap:round; stroke-linejoin:round; stroke-opacity:1.0; stroke-opacity:1.0; stroke-width:10" 
   transform="translate(0 0) scale(1 1)">
<path d="M7900 3300 L8150 3300" /> 
<path d="M7900 3200 L7900 3300" /> 
<path d="M8150 3250 L8150 3350" /> 
</g>
<g style="fill:#000000; fill-opacity:1.0; 
  stroke:#000000; stroke-linecap:round; stroke-linejoin:round; stroke-opacity:1.0; stroke-opacity:1.0; stroke-width:0" 
   transform="translate(0 0) scale(1 1)">
<ellipse cx="7900" cy="2700" rx="16" ry="16"  /> 
</g>
<g style="fill:#000000; fill-opacity:1.0; 
  stroke:#000000; stroke-linecap:round; stroke-linejoin:round; stroke-opacity:1.0; stroke-opacity:1.0; stroke-width:10" 
   transform="translate(0 0) scale(1 1)">
<path d="M7900 2600 L7900 2800" /> 
</g>
<g style="fill:#000000; fill-opacity:1.0; 
  stroke:#000000; stroke-linecap:round; stroke-linejoin:round; stroke-opacity:1.0; stroke-opacity:1.0; stroke-width:0" 
   transform="translate(0 0) scale(1 1)">
<ellipse cx="8150" cy="2700" rx="16" ry="16"  /> 
</g>
<g style="fill:#000000; fill-opacity:1.0; 
  stroke:#000000; stroke-linecap:round; stroke-linejoin:round; stroke-opacity:1.0; stroke-opacity:1.0; stroke-width:10" 
   transform="translate(0 0) scale(1 1)">
<path d="M7700 2700 L8150 2700" /> 
<path d="M7700 2600 L7700 2700" /> 
</g>
<g style="fill:#000000; fill-opacity:1.0; 
  stroke:#000000; stroke-linecap:round; stroke-linejoin:round; stroke-opacity:1.0; stroke-opacity:1.0; stroke-width:0" 
   transform="translate(0 0) scale(1 1)">
<ellipse cx="7900" cy="2000" rx="16" ry="16"  /> 
<ellipse cx="7900" cy="2000" rx="16" ry="16"  /> 
</g>
<g style="fill:#000000; fill-opacity:1.0; 
  stroke:#000000; stroke-linecap:round; stroke-linejoin:round; stroke-opacity:1.0; stroke-opacity:1.0; stroke-width:10" 
   transform="translate(0 0) scale(1 1)">
<path d="M7900 2000 L7900 2100" /> 
<path d="M8050 2000 L8050 1900" /> 
<path d="M7600 2000 L8050 2000" /> 
</g>
<g style="fill:#000000; fill-opacity:1.0; 
  stroke:#000000; stroke-linecap:round; stroke-linejoin:round; stroke-opacity:1.0; stroke-opacity:1.0; stroke-width:0" 
   transform="translate(0 0) scale(1 1)">
<ellipse cx="7700" cy="1700" rx="16" ry="16"  /> 
<ellipse cx="7700" cy="1700" rx="16" ry="16"  /> 
</g>
<g style="fill:#000000; fill-opacity:1.0; 
  stroke:#000000; stroke-linecap:round; stroke-linejoin:round; stroke-opacity:1.0; stroke-opacity:1.0; stroke-width:10" 
   transform="translate(0 0) scale(1 1)">
<path d="M7700 1700 L7700 2100" /> 
<path d="M8050 1700 L8050 1800" /> 
<path d="M7600 1700 L8050 1700" /> 
<path d="M6900 1600 L6900 1700" /> 
<path d="M7050 1600 L6900 1600" /> 
<path d="M7050 1700 L7050 1600" /> 
<path d="M7200 1900 L7200 2000" /> 
<path d="M6900 1900 L7200 1900" /> 
<path d="M7200 1800 L7200 1700" /> 
<path d="M6900 1800 L7200 1800" /> 
<path d="M8650 2000 L8900 2000" /> 
<path d="M8650 2100 L8650 2000" /> 
<path d="M8900 2200 L8900 2100" /> 
<path d="M8800 2200 L8900 2200" /> 
<path d="M8800 2150 L8800 2200" /> 
<path d="M8150 2150 L8150 2100" /> 
<path d="M8150 2650 L8150 2750" /> 
<path d="M8250 1600 L8900 1600" /> 
<path d="M8250 1700 L8900 1700" /> 
<path d="M8900 1800 L8050 1800" /> 
<path d="M8900 1900 L8050 1900" /> 
</g> 
</svg> 
