<?xml version="1.0" encoding="UTF-8" standalone="no"?>
<!-- Created with Inkscape (http://www.inkscape.org/) -->

<svg
   xmlns:ns0="http://www.iki.fi/pav/software/textext/"
   xmlns:dc="http://purl.org/dc/elements/1.1/"
   xmlns:cc="http://creativecommons.org/ns#"
   xmlns:rdf="http://www.w3.org/1999/02/22-rdf-syntax-ns#"
   xmlns:svg="http://www.w3.org/2000/svg"
   xmlns="http://www.w3.org/2000/svg"
   xmlns:xlink="http://www.w3.org/1999/xlink"
   xmlns:sodipodi="http://sodipodi.sourceforge.net/DTD/sodipodi-0.dtd"
   xmlns:inkscape="http://www.inkscape.org/namespaces/inkscape"
   width="744.09448819"
   height="1052.3622047"
   id="svg2"
   version="1.1"
   inkscape:version="0.48.4 r9939"
   sodipodi:docname="target.svg">
  <sodipodi:namedview
     id="base"
     pagecolor="#ffffff"
     bordercolor="#666666"
     borderopacity="1.0"
     inkscape:pageopacity="1"
     inkscape:pageshadow="2"
     inkscape:zoom="1"
     inkscape:cx="264.94718"
     inkscape:cy="781.40991"
     inkscape:document-units="px"
     inkscape:current-layer="layer1"
     showgrid="false"
     inkscape:window-width="1366"
     inkscape:window-height="754"
     inkscape:window-x="0"
     inkscape:window-y="14"
     inkscape:window-maximized="0" />
  <defs
     id="defs4">
    <defs
       id="defs3828">
      <g
         id="g3830">
        <symbol
           style="overflow:visible"
           overflow="visible"
           id="textext-c317feff-0">
          <path
             inkscape:connector-curvature="0"
             style="stroke:none"
             d=""
             id="path3833" />
        </symbol>
        <symbol
           style="overflow:visible"
           overflow="visible"
           id="textext-c317feff-1">
          <path
             inkscape:connector-curvature="0"
             style="stroke:none"
             d="m 1.71875,-3.984375 1.4375,0 0,-0.3125 -1.4375,0 0,-1.828125 -0.25,0 c 0,0.8125 -0.296875,1.875 -1.28125,1.921875 l 0,0.21875 0.84375,0 0,2.75 c 0,1.21875 0.9375,1.34375 1.296875,1.34375 0.703125,0 0.984375,-0.703125 0.984375,-1.34375 l 0,-0.5625 -0.25,0 0,0.546875 c 0,0.734375 -0.296875,1.109375 -0.671875,1.109375 -0.671875,0 -0.671875,-0.90625 -0.671875,-1.078125 z"
             id="path3836" />
        </symbol>
        <symbol
           style="overflow:visible"
           overflow="visible"
           id="textext-c317feff-2">
          <path
             inkscape:connector-curvature="0"
             style="stroke:none"
             d="M 1.109375,-2.515625 C 1.171875,-4 2.015625,-4.25 2.359375,-4.25 c 1.015625,0 1.125,1.34375 1.125,1.734375 z m 0,0.21875 2.78125,0 c 0.21875,0 0.25,0 0.25,-0.21875 0,-0.984375 -0.546875,-1.953125 -1.78125,-1.953125 -1.15625,0 -2.078125,1.03125 -2.078125,2.28125 0,1.328125 1.046875,2.296875 2.1875,2.296875 C 3.6875,0.109375 4.140625,-1 4.140625,-1.1875 4.140625,-1.28125 4.0625,-1.3125 4,-1.3125 c -0.078125,0 -0.109375,0.0625 -0.125,0.140625 -0.34375,1.03125 -1.25,1.03125 -1.34375,1.03125 -0.5,0 -0.890625,-0.296875 -1.125,-0.671875 -0.296875,-0.46875 -0.296875,-1.125 -0.296875,-1.484375 z"
             id="path3839" />
        </symbol>
        <symbol
           style="overflow:visible"
           overflow="visible"
           id="textext-c317feff-3">
          <path
             inkscape:connector-curvature="0"
             style="stroke:none"
             d="m 1.09375,-3.421875 0,2.671875 c 0,0.4375 -0.109375,0.4375 -0.78125,0.4375 l 0,0.3125 c 0.359375,-0.015625 0.859375,-0.03125 1.140625,-0.03125 0.25,0 0.765625,0.015625 1.109375,0.03125 l 0,-0.3125 c -0.671875,0 -0.78125,0 -0.78125,-0.4375 l 0,-1.84375 C 1.78125,-3.625 2.5,-4.1875 3.125,-4.1875 c 0.640625,0 0.75,0.53125 0.75,1.109375 l 0,2.328125 c 0,0.4375 -0.109375,0.4375 -0.78125,0.4375 l 0,0.3125 c 0.34375,-0.015625 0.859375,-0.03125 1.125,-0.03125 0.25,0 0.78125,0.015625 1.109375,0.03125 l 0,-0.3125 c -0.65625,0 -0.765625,0 -0.765625,-0.4375 l 0,-1.84375 c 0,-1.03125 0.703125,-1.59375 1.34375,-1.59375 0.625,0 0.734375,0.53125 0.734375,1.109375 l 0,2.328125 c 0,0.4375 -0.109375,0.4375 -0.78125,0.4375 l 0,0.3125 c 0.34375,-0.015625 0.859375,-0.03125 1.125,-0.03125 0.265625,0 0.78125,0.015625 1.125,0.03125 l 0,-0.3125 c -0.515625,0 -0.765625,0 -0.78125,-0.296875 l 0,-1.90625 c 0,-0.859375 0,-1.15625 -0.3125,-1.515625 -0.140625,-0.171875 -0.46875,-0.375 -1.046875,-0.375 -0.828125,0 -1.28125,0.59375 -1.4375,0.984375 C 4.390625,-4.296875 3.65625,-4.40625 3.203125,-4.40625 2.46875,-4.40625 2,-3.984375 1.71875,-3.359375 l 0,-1.046875 -1.40625,0.109375 0,0.3125 c 0.703125,0 0.78125,0.0625 0.78125,0.5625 z"
             id="path3842" />
        </symbol>
        <symbol
           style="overflow:visible"
           overflow="visible"
           id="textext-c317feff-4">
          <path
             inkscape:connector-curvature="0"
             style="stroke:none"
             d="m 1.71875,-3.75 0,-0.65625 -1.4375,0.109375 0,0.3125 c 0.703125,0 0.78125,0.0625 0.78125,0.5 l 0,4.65625 C 1.0625,1.625 0.953125,1.625 0.28125,1.625 l 0,0.3125 C 0.625,1.921875 1.140625,1.90625 1.390625,1.90625 c 0.28125,0 0.78125,0.015625 1.125,0.03125 l 0,-0.3125 C 1.859375,1.625 1.75,1.625 1.75,1.171875 l 0,-1.765625 c 0.046875,0.171875 0.46875,0.703125 1.21875,0.703125 1.1875,0 2.21875,-0.984375 2.21875,-2.265625 0,-1.265625 -0.953125,-2.25 -2.078125,-2.25 -0.78125,0 -1.203125,0.4375 -1.390625,0.65625 z m 0.03125,2.609375 0,-2.21875 C 2.03125,-3.875 2.515625,-4.15625 3.03125,-4.15625 c 0.734375,0 1.328125,0.875 1.328125,2 0,1.203125 -0.6875,2.046875 -1.421875,2.046875 -0.40625,0 -0.78125,-0.203125 -1.046875,-0.609375 C 1.75,-0.921875 1.75,-0.9375 1.75,-1.140625 z"
             id="path3845" />
        </symbol>
        <symbol
           style="overflow:visible"
           overflow="visible"
           id="textext-c317feff-5">
          <path
             inkscape:connector-curvature="0"
             style="stroke:none"
             d="M 4.6875,-2.140625 C 4.6875,-3.40625 3.703125,-4.46875 2.5,-4.46875 c -1.25,0 -2.21875,1.09375 -2.21875,2.328125 0,1.296875 1.03125,2.25 2.203125,2.25 1.203125,0 2.203125,-0.984375 2.203125,-2.25 z m -2.1875,2 c -0.4375,0 -0.875,-0.203125 -1.140625,-0.671875 -0.25,-0.4375 -0.25,-1.046875 -0.25,-1.40625 0,-0.390625 0,-0.921875 0.234375,-1.359375 C 1.609375,-4.03125 2.078125,-4.25 2.484375,-4.25 c 0.4375,0 0.859375,0.21875 1.125,0.65625 0.265625,0.421875 0.265625,1 0.265625,1.375 0,0.359375 0,0.90625 -0.21875,1.34375 C 3.421875,-0.421875 2.984375,-0.140625 2.5,-0.140625 z"
             id="path3848" />
        </symbol>
      </g>
    </defs>
  </defs>
  <metadata
     id="metadata7">
    <rdf:RDF>
      <cc:Work
         rdf:about="">
        <dc:format>image/svg+xml</dc:format>
        <dc:type
           rdf:resource="http://purl.org/dc/dcmitype/StillImage" />
        <dc:title></dc:title>
      </cc:Work>
    </rdf:RDF>
  </metadata>
  <g
     id="layer1"
     inkscape:groupmode="layer"
     inkscape:label="Layer 1">
    <rect
       y="205.21933"
       x="254.28571"
       height="14.243482"
       width="48.297333"
       id="rect2985"
       style="fill:#ff1000;fill-opacity:1;stroke:none" />
    <rect
       style="fill:#ff5200;fill-opacity:1;stroke:none"
       id="rect3755"
       width="67.449722"
       height="14.243482"
       x="254.28571"
       y="221.56432" />
    <rect
       style="fill:#ffe700;fill-opacity:1;stroke:none"
       id="rect3759"
       width="92.431099"
       height="14.243482"
       x="254.28571"
       y="254.25427" />
    <rect
       y="270.59924"
       x="254.28571"
       height="14.243482"
       width="104.92179"
       id="rect3761"
       style="fill:#c5ff00;fill-opacity:1;stroke:none" />
    <rect
       y="286.94424"
       x="254.28571"
       height="14.243482"
       width="86.602112"
       id="rect3763"
       style="fill:#ffe700;fill-opacity:1;stroke:none" />
    <rect
       style="fill:#ff8300;fill-opacity:1;stroke:none"
       id="rect3765"
       width="76.609558"
       height="14.243482"
       x="254.28571"
       y="237.90929" />
    <rect
       y="303.28928"
       x="254.28571"
       height="14.243482"
       width="71.277031"
       id="rect3786"
       style="fill:#ff8300;fill-opacity:1;stroke:none" />
    <rect
       style="fill:#ff1000;fill-opacity:1;stroke:none"
       id="rect3788"
       width="41.52594"
       height="14.243482"
       x="254.28571"
       y="335.97919" />
    <rect
       y="319.63425"
       x="254.28571"
       height="14.243482"
       width="58.617466"
       id="rect3790"
       style="fill:#ff2a00;fill-opacity:1;stroke:none" />
    <g
       style="fill:#ffffff;fill-opacity:1"
       id="textext-c317feff-6"
       transform="matrix(1.7129379,0,0,1.7129379,-184.72502,-32.800889)">
      <g
         style="fill:#ffffff;fill-opacity:1"
         id="g3851">
        <use
           height="1052.3622"
           width="744.09448"
           style="fill:#ffffff;fill-opacity:1"
           xlink:href="#textext-c317feff-1"
           x="223.43201"
           y="134.765"
           id="use3853" />
        <use
           height="1052.3622"
           width="744.09448"
           style="fill:#ffffff;fill-opacity:1"
           xlink:href="#textext-c317feff-2"
           x="227.30646"
           y="134.765"
           id="use3855" />
        <use
           height="1052.3622"
           width="744.09448"
           style="fill:#ffffff;fill-opacity:1"
           xlink:href="#textext-c317feff-3"
           x="231.73384"
           y="134.765"
           id="use3857" />
        <use
           height="1052.3622"
           width="744.09448"
           style="fill:#ffffff;fill-opacity:1"
           xlink:href="#textext-c317feff-4"
           x="240.03568"
           y="134.765"
           id="use3859" />
      </g>
      <g
         style="fill:#ffffff;fill-opacity:1"
         id="g3861">
        <use
           height="1052.3622"
           width="744.09448"
           style="fill:#ffffff;fill-opacity:1"
           xlink:href="#textext-c317feff-5"
           x="245.84984"
           y="134.765"
           id="use3863" />
      </g>
    </g>
    <g
       style="fill:#ffffff;fill-opacity:1;stroke:none"
       transform="matrix(1.3703503,0,0,1.3703503,-82.018711,31.808821)"
       ns0:text="137 \\\\\n138 \\\\\n139 \\\\\n140 \\\\\n141 \\\\\n142 \\\\\n143 \\\\\n144 \\\\\n145"
       ns0:preamble=""
       id="g4183">
      <defs
         id="defs4185">
        <g
           id="g4187">
          <symbol
             style="overflow:visible"
             overflow="visible"
             id="textext-788af36e-0">
            <path
               inkscape:connector-curvature="0"
               style="stroke:none"
               d=""
               id="path4190" />
          </symbol>
          <symbol
             style="overflow:visible"
             overflow="visible"
             id="textext-788af36e-1">
            <path
               inkscape:connector-curvature="0"
               style="stroke:none"
               d="m 2.9375,-6.375 c 0,-0.25 0,-0.265625 -0.234375,-0.265625 C 2.078125,-6 1.203125,-6 0.890625,-6 l 0,0.3125 c 0.203125,0 0.78125,0 1.296875,-0.265625 l 0,5.171875 c 0,0.359375 -0.03125,0.46875 -0.921875,0.46875 l -0.3125,0 0,0.3125 c 0.34375,-0.03125 1.203125,-0.03125 1.609375,-0.03125 0.390625,0 1.265625,0 1.609375,0.03125 l 0,-0.3125 -0.3125,0 c -0.90625,0 -0.921875,-0.109375 -0.921875,-0.46875 z"
               id="path4193" />
          </symbol>
          <symbol
             style="overflow:visible"
             overflow="visible"
             id="textext-788af36e-2">
            <path
               inkscape:connector-curvature="0"
               style="stroke:none"
               d="m 2.890625,-3.515625 c 0.8125,-0.265625 1.390625,-0.953125 1.390625,-1.75 0,-0.8125 -0.875,-1.375 -1.828125,-1.375 -1,0 -1.765625,0.59375 -1.765625,1.359375 0,0.328125 0.21875,0.515625 0.515625,0.515625 0.296875,0 0.5,-0.21875 0.5,-0.515625 0,-0.484375 -0.46875,-0.484375 -0.609375,-0.484375 0.296875,-0.5 0.953125,-0.625 1.3125,-0.625 0.421875,0 0.96875,0.21875 0.96875,1.109375 0,0.125 -0.03125,0.703125 -0.28125,1.140625 C 2.796875,-3.65625 2.453125,-3.625 2.203125,-3.625 2.125,-3.609375 1.890625,-3.59375 1.8125,-3.59375 c -0.078125,0.015625 -0.140625,0.03125 -0.140625,0.125 0,0.109375 0.0625,0.109375 0.234375,0.109375 l 0.4375,0 c 0.8125,0 1.1875,0.671875 1.1875,1.65625 0,1.359375 -0.6875,1.640625 -1.125,1.640625 -0.4375,0 -1.1875,-0.171875 -1.53125,-0.75 0.34375,0.046875 0.65625,-0.171875 0.65625,-0.546875 0,-0.359375 -0.265625,-0.5625 -0.546875,-0.5625 -0.25,0 -0.5625,0.140625 -0.5625,0.578125 0,0.90625 0.921875,1.5625 2.015625,1.5625 1.21875,0 2.125,-0.90625 2.125,-1.921875 0,-0.8125 -0.640625,-1.59375 -1.671875,-1.8125 z"
               id="path4196" />
          </symbol>
          <symbol
             style="overflow:visible"
             overflow="visible"
             id="textext-788af36e-3">
            <path
               inkscape:connector-curvature="0"
               style="stroke:none"
               d="m 4.75,-6.078125 c 0.078125,-0.109375 0.078125,-0.125 0.078125,-0.34375 l -2.421875,0 c -1.203125,0 -1.234375,-0.125 -1.265625,-0.3125 l -0.25,0 -0.328125,2.046875 0.25,0 c 0.03125,-0.15625 0.109375,-0.78125 0.25,-0.90625 0.0625,-0.0625 0.84375,-0.0625 0.96875,-0.0625 l 2.0625,0 C 3.984375,-5.5 3.203125,-4.40625 2.984375,-4.078125 2.078125,-2.734375 1.75,-1.34375 1.75,-0.328125 c 0,0.09375 0,0.546875 0.46875,0.546875 0.453125,0 0.453125,-0.453125 0.453125,-0.546875 l 0,-0.515625 c 0,-0.546875 0.03125,-1.09375 0.109375,-1.625 0.046875,-0.234375 0.171875,-1.09375 0.625,-1.703125 z"
               id="path4199" />
          </symbol>
          <symbol
             style="overflow:visible"
             overflow="visible"
             id="textext-788af36e-4">
            <path
               inkscape:connector-curvature="0"
               style="stroke:none"
               d="m 1.625,-4.5625 c -0.453125,-0.296875 -0.5,-0.625 -0.5,-0.796875 0,-0.609375 0.65625,-1.03125 1.359375,-1.03125 0.71875,0 1.359375,0.515625 1.359375,1.234375 0,0.578125 -0.390625,1.046875 -0.984375,1.390625 z m 1.453125,0.953125 C 3.796875,-3.984375 4.28125,-4.5 4.28125,-5.15625 c 0,-0.921875 -0.875,-1.484375 -1.78125,-1.484375 -1,0 -1.8125,0.734375 -1.8125,1.671875 0,0.171875 0.015625,0.625 0.4375,1.09375 0.109375,0.109375 0.484375,0.359375 0.734375,0.53125 C 1.28125,-3.046875 0.421875,-2.5 0.421875,-1.5 c 0,1.046875 1.015625,1.71875 2.0625,1.71875 1.125,0 2.078125,-0.828125 2.078125,-1.890625 0,-0.359375 -0.109375,-0.8125 -0.5,-1.234375 C 3.875,-3.109375 3.71875,-3.203125 3.078125,-3.609375 z m -1,0.421875 1.234375,0.78125 c 0.28125,0.1875 0.75,0.484375 0.75,1.09375 0,0.734375 -0.75,1.25 -1.5625,1.25 -0.859375,0 -1.578125,-0.609375 -1.578125,-1.4375 0,-0.578125 0.3125,-1.21875 1.15625,-1.6875 z"
               id="path4202" />
          </symbol>
          <symbol
             style="overflow:visible"
             overflow="visible"
             id="textext-788af36e-5">
            <path
               inkscape:connector-curvature="0"
               style="stroke:none"
               d="m 3.65625,-3.171875 0,0.328125 c 0,2.328125 -1.03125,2.78125 -1.609375,2.78125 -0.171875,0 -0.71875,-0.015625 -0.984375,-0.359375 0.4375,0 0.515625,-0.28125 0.515625,-0.453125 0,-0.3125 -0.234375,-0.453125 -0.453125,-0.453125 -0.15625,0 -0.453125,0.078125 -0.453125,0.46875 0,0.671875 0.53125,1.078125 1.375,1.078125 1.296875,0 2.515625,-1.359375 2.515625,-3.5 0,-2.6875 -1.15625,-3.359375 -2.046875,-3.359375 -0.546875,0 -1.03125,0.1875 -1.453125,0.625 -0.421875,0.453125 -0.640625,0.875 -0.640625,1.625 0,1.234375 0.875,2.21875 1.984375,2.21875 0.609375,0 1.015625,-0.421875 1.25,-1 z M 2.421875,-2.40625 c -0.15625,0 -0.625,0 -0.921875,-0.625 -0.1875,-0.375 -0.1875,-0.859375 -0.1875,-1.359375 0,-0.53125 0,-1 0.21875,-1.375 0.265625,-0.5 0.640625,-0.625 0.984375,-0.625 0.46875,0 0.796875,0.34375 0.96875,0.78125 0.109375,0.328125 0.15625,0.953125 0.15625,1.40625 0,0.828125 -0.34375,1.796875 -1.21875,1.796875 z"
               id="path4205" />
          </symbol>
          <symbol
             style="overflow:visible"
             overflow="visible"
             id="textext-788af36e-6">
            <path
               inkscape:connector-curvature="0"
               style="stroke:none"
               d="m 2.9375,-1.640625 0,0.859375 c 0,0.359375 -0.03125,0.46875 -0.765625,0.46875 l -0.203125,0 0,0.3125 C 2.375,-0.03125 2.890625,-0.03125 3.3125,-0.03125 c 0.421875,0 0.9375,0 1.359375,0.03125 l 0,-0.3125 -0.21875,0 c -0.734375,0 -0.75,-0.109375 -0.75,-0.46875 l 0,-0.859375 0.984375,0 0,-0.3125 -0.984375,0 0,-4.53125 c 0,-0.203125 0,-0.265625 -0.171875,-0.265625 -0.078125,0 -0.109375,0 -0.1875,0.125 l -3.0625,4.671875 0,0.3125 z m 0.046875,-0.3125 -2.421875,0 2.421875,-3.71875 z"
               id="path4208" />
          </symbol>
          <symbol
             style="overflow:visible"
             overflow="visible"
             id="textext-788af36e-7">
            <path
               inkscape:connector-curvature="0"
               style="stroke:none"
               d="m 4.578125,-3.1875 c 0,-0.796875 -0.046875,-1.59375 -0.390625,-2.328125 -0.453125,-0.96875 -1.28125,-1.125 -1.6875,-1.125 -0.609375,0 -1.328125,0.265625 -1.75,1.1875 -0.3125,0.6875 -0.359375,1.46875 -0.359375,2.265625 0,0.75 0.03125,1.640625 0.453125,2.40625 0.421875,0.796875 1.15625,1 1.640625,1 0.53125,0 1.296875,-0.203125 1.734375,-1.15625 0.3125,-0.6875 0.359375,-1.46875 0.359375,-2.25 z M 2.484375,0 C 2.09375,0 1.5,-0.25 1.328125,-1.203125 1.21875,-1.796875 1.21875,-2.71875 1.21875,-3.3125 c 0,-0.640625 0,-1.296875 0.078125,-1.828125 0.1875,-1.1875 0.9375,-1.28125 1.1875,-1.28125 0.328125,0 0.984375,0.1875 1.171875,1.171875 0.109375,0.5625 0.109375,1.3125 0.109375,1.9375 0,0.75 0,1.421875 -0.109375,2.0625 C 3.5,-0.296875 2.9375,0 2.484375,0 z"
               id="path4211" />
          </symbol>
          <symbol
             style="overflow:visible"
             overflow="visible"
             id="textext-788af36e-8">
            <path
               inkscape:connector-curvature="0"
               style="stroke:none"
               d="m 1.265625,-0.765625 1.0625,-1.03125 c 1.546875,-1.375 2.140625,-1.90625 2.140625,-2.90625 0,-1.140625 -0.890625,-1.9375 -2.109375,-1.9375 -1.125,0 -1.859375,0.921875 -1.859375,1.8125 0,0.546875 0.5,0.546875 0.53125,0.546875 0.171875,0 0.515625,-0.109375 0.515625,-0.53125 0,-0.25 -0.1875,-0.515625 -0.53125,-0.515625 -0.078125,0 -0.09375,0 -0.125,0.015625 0.21875,-0.65625 0.765625,-1.015625 1.34375,-1.015625 0.90625,0 1.328125,0.8125 1.328125,1.625 C 3.5625,-3.90625 3.078125,-3.125 2.515625,-2.5 l -1.90625,2.125 C 0.5,-0.265625 0.5,-0.234375 0.5,0 l 3.703125,0 0.265625,-1.734375 -0.234375,0 C 4.171875,-1.4375 4.109375,-1 4,-0.84375 3.9375,-0.765625 3.28125,-0.765625 3.0625,-0.765625 z"
               id="path4214" />
          </symbol>
          <symbol
             style="overflow:visible"
             overflow="visible"
             id="textext-788af36e-9">
            <path
               inkscape:connector-curvature="0"
               style="stroke:none"
               d="m 4.46875,-2 c 0,-1.1875 -0.8125,-2.1875 -1.890625,-2.1875 -0.46875,0 -0.90625,0.15625 -1.265625,0.515625 l 0,-1.953125 c 0.203125,0.0625 0.53125,0.125 0.84375,0.125 1.234375,0 1.9375,-0.90625 1.9375,-1.03125 0,-0.0625 -0.03125,-0.109375 -0.109375,-0.109375 0,0 -0.03125,0 -0.078125,0.03125 C 3.703125,-6.515625 3.21875,-6.3125 2.546875,-6.3125 2.15625,-6.3125 1.6875,-6.390625 1.21875,-6.59375 1.140625,-6.625 1.125,-6.625 1.109375,-6.625 1,-6.625 1,-6.546875 1,-6.390625 L 1,-3.4375 c 0,0.171875 0,0.25 0.140625,0.25 0.078125,0 0.09375,-0.015625 0.140625,-0.078125 C 1.390625,-3.421875 1.75,-3.96875 2.5625,-3.96875 c 0.515625,0 0.765625,0.453125 0.84375,0.640625 0.15625,0.375 0.1875,0.75 0.1875,1.25 0,0.359375 0,0.953125 -0.25,1.375 C 3.109375,-0.3125 2.734375,-0.0625 2.28125,-0.0625 c -0.71875,0 -1.296875,-0.53125 -1.46875,-1.109375 0.03125,0 0.0625,0.015625 0.171875,0.015625 0.328125,0 0.5,-0.25 0.5,-0.484375 0,-0.25 -0.171875,-0.5 -0.5,-0.5 C 0.84375,-2.140625 0.5,-2.0625 0.5,-1.609375 0.5,-0.75 1.1875,0.21875 2.296875,0.21875 3.453125,0.21875 4.46875,-0.734375 4.46875,-2 z"
               id="path4217" />
          </symbol>
        </g>
      </defs>
      <g
         style="fill:#ffffff;fill-opacity:1;stroke:none"
         id="textext-788af36e-10">
        <g
           style="fill:#ffffff;fill-opacity:1;stroke:none"
           id="g4220">
          <use
             height="1052.3622"
             width="744.09448"
             style="fill:#ffffff;fill-opacity:1;stroke:none"
             xlink:href="#textext-788af36e-1"
             x="223.43201"
             y="134.765"
             id="use4222" />
          <use
             height="1052.3622"
             width="744.09448"
             style="fill:#ffffff;fill-opacity:1;stroke:none"
             xlink:href="#textext-788af36e-2"
             x="228.4133"
             y="134.765"
             id="use4224" />
          <use
             height="1052.3622"
             width="744.09448"
             style="fill:#ffffff;fill-opacity:1;stroke:none"
             xlink:href="#textext-788af36e-3"
             x="233.39461"
             y="134.765"
             id="use4226" />
        </g>
        <g
           style="fill:#ffffff;fill-opacity:1;stroke:none"
           id="g4228">
          <use
             height="1052.3622"
             width="744.09448"
             style="fill:#ffffff;fill-opacity:1;stroke:none"
             xlink:href="#textext-788af36e-1"
             x="223.43201"
             y="146.72"
             id="use4230" />
          <use
             height="1052.3622"
             width="744.09448"
             style="fill:#ffffff;fill-opacity:1;stroke:none"
             xlink:href="#textext-788af36e-2"
             x="228.4133"
             y="146.72"
             id="use4232" />
          <use
             height="1052.3622"
             width="744.09448"
             style="fill:#ffffff;fill-opacity:1;stroke:none"
             xlink:href="#textext-788af36e-4"
             x="233.39461"
             y="146.72"
             id="use4234" />
        </g>
        <g
           style="fill:#ffffff;fill-opacity:1;stroke:none"
           id="g4236">
          <use
             height="1052.3622"
             width="744.09448"
             style="fill:#ffffff;fill-opacity:1;stroke:none"
             xlink:href="#textext-788af36e-1"
             x="223.43201"
             y="158.675"
             id="use4238" />
          <use
             height="1052.3622"
             width="744.09448"
             style="fill:#ffffff;fill-opacity:1;stroke:none"
             xlink:href="#textext-788af36e-2"
             x="228.4133"
             y="158.675"
             id="use4240" />
          <use
             height="1052.3622"
             width="744.09448"
             style="fill:#ffffff;fill-opacity:1;stroke:none"
             xlink:href="#textext-788af36e-5"
             x="233.39461"
             y="158.675"
             id="use4242" />
        </g>
        <g
           style="fill:#ffffff;fill-opacity:1;stroke:none"
           id="g4244">
          <use
             height="1052.3622"
             width="744.09448"
             style="fill:#ffffff;fill-opacity:1;stroke:none"
             xlink:href="#textext-788af36e-1"
             x="223.43201"
             y="170.63"
             id="use4246" />
          <use
             height="1052.3622"
             width="744.09448"
             style="fill:#ffffff;fill-opacity:1;stroke:none"
             xlink:href="#textext-788af36e-6"
             x="228.4133"
             y="170.63"
             id="use4248" />
          <use
             height="1052.3622"
             width="744.09448"
             style="fill:#ffffff;fill-opacity:1;stroke:none"
             xlink:href="#textext-788af36e-7"
             x="233.39461"
             y="170.63"
             id="use4250" />
        </g>
        <g
           style="fill:#ffffff;fill-opacity:1;stroke:none"
           id="g4252">
          <use
             height="1052.3622"
             width="744.09448"
             style="fill:#ffffff;fill-opacity:1;stroke:none"
             xlink:href="#textext-788af36e-1"
             x="223.43201"
             y="182.586"
             id="use4254" />
          <use
             height="1052.3622"
             width="744.09448"
             style="fill:#ffffff;fill-opacity:1;stroke:none"
             xlink:href="#textext-788af36e-6"
             x="228.4133"
             y="182.586"
             id="use4256" />
          <use
             height="1052.3622"
             width="744.09448"
             style="fill:#ffffff;fill-opacity:1;stroke:none"
             xlink:href="#textext-788af36e-1"
             x="233.39461"
             y="182.586"
             id="use4258" />
        </g>
        <g
           style="fill:#ffffff;fill-opacity:1;stroke:none"
           id="g4260">
          <use
             height="1052.3622"
             width="744.09448"
             style="fill:#ffffff;fill-opacity:1;stroke:none"
             xlink:href="#textext-788af36e-1"
             x="223.43201"
             y="194.541"
             id="use4262" />
          <use
             height="1052.3622"
             width="744.09448"
             style="fill:#ffffff;fill-opacity:1;stroke:none"
             xlink:href="#textext-788af36e-6"
             x="228.4133"
             y="194.541"
             id="use4264" />
          <use
             height="1052.3622"
             width="744.09448"
             style="fill:#ffffff;fill-opacity:1;stroke:none"
             xlink:href="#textext-788af36e-8"
             x="233.39461"
             y="194.541"
             id="use4266" />
        </g>
        <g
           style="fill:#ffffff;fill-opacity:1;stroke:none"
           id="g4268">
          <use
             height="1052.3622"
             width="744.09448"
             style="fill:#ffffff;fill-opacity:1;stroke:none"
             xlink:href="#textext-788af36e-1"
             x="223.43201"
             y="206.496"
             id="use4270" />
          <use
             height="1052.3622"
             width="744.09448"
             style="fill:#ffffff;fill-opacity:1;stroke:none"
             xlink:href="#textext-788af36e-6"
             x="228.4133"
             y="206.496"
             id="use4272" />
          <use
             height="1052.3622"
             width="744.09448"
             style="fill:#ffffff;fill-opacity:1;stroke:none"
             xlink:href="#textext-788af36e-2"
             x="233.39461"
             y="206.496"
             id="use4274" />
        </g>
        <g
           style="fill:#ffffff;fill-opacity:1;stroke:none"
           id="g4276">
          <use
             height="1052.3622"
             width="744.09448"
             style="fill:#ffffff;fill-opacity:1;stroke:none"
             xlink:href="#textext-788af36e-1"
             x="223.43201"
             y="218.451"
             id="use4278" />
          <use
             height="1052.3622"
             width="744.09448"
             style="fill:#ffffff;fill-opacity:1;stroke:none"
             xlink:href="#textext-788af36e-6"
             x="228.4133"
             y="218.451"
             id="use4280" />
          <use
             height="1052.3622"
             width="744.09448"
             style="fill:#ffffff;fill-opacity:1;stroke:none"
             xlink:href="#textext-788af36e-6"
             x="233.39461"
             y="218.451"
             id="use4282" />
        </g>
        <g
           style="fill:#ffffff;fill-opacity:1;stroke:none"
           id="g4284">
          <use
             height="1052.3622"
             width="744.09448"
             style="fill:#ffffff;fill-opacity:1;stroke:none"
             xlink:href="#textext-788af36e-1"
             x="223.43201"
             y="230.40601"
             id="use4286" />
          <use
             height="1052.3622"
             width="744.09448"
             style="fill:#ffffff;fill-opacity:1;stroke:none"
             xlink:href="#textext-788af36e-6"
             x="228.4133"
             y="230.40601"
             id="use4288" />
          <use
             height="1052.3622"
             width="744.09448"
             style="fill:#ffffff;fill-opacity:1;stroke:none"
             xlink:href="#textext-788af36e-9"
             x="233.39461"
             y="230.40601"
             id="use4290" />
        </g>
      </g>
    </g>
    <g
       ns0:text="probability"
       ns0:preamble=""
       transform="matrix(1.7129379,0,0,1.7129379,-128.92121,-32.800889)"
       style="fill:#ffffff;fill-opacity:1"
       id="g3985">
      <defs
         id="defs3987">
        <g
           id="g3989">
          <symbol
             style="overflow:visible"
             overflow="visible"
             id="textext-d677eb0a-0">
            <path
               inkscape:connector-curvature="0"
               style="stroke:none"
               d=""
               id="path3992" />
          </symbol>
          <symbol
             style="overflow:visible"
             overflow="visible"
             id="textext-d677eb0a-1">
            <path
               inkscape:connector-curvature="0"
               style="stroke:none"
               d="m 1.71875,-3.75 0,-0.65625 -1.4375,0.109375 0,0.3125 c 0.703125,0 0.78125,0.0625 0.78125,0.5 l 0,4.65625 C 1.0625,1.625 0.953125,1.625 0.28125,1.625 l 0,0.3125 C 0.625,1.921875 1.140625,1.90625 1.390625,1.90625 c 0.28125,0 0.78125,0.015625 1.125,0.03125 l 0,-0.3125 C 1.859375,1.625 1.75,1.625 1.75,1.171875 l 0,-1.765625 c 0.046875,0.171875 0.46875,0.703125 1.21875,0.703125 1.1875,0 2.21875,-0.984375 2.21875,-2.265625 0,-1.265625 -0.953125,-2.25 -2.078125,-2.25 -0.78125,0 -1.203125,0.4375 -1.390625,0.65625 z m 0.03125,2.609375 0,-2.21875 C 2.03125,-3.875 2.515625,-4.15625 3.03125,-4.15625 c 0.734375,0 1.328125,0.875 1.328125,2 0,1.203125 -0.6875,2.046875 -1.421875,2.046875 -0.40625,0 -0.78125,-0.203125 -1.046875,-0.609375 C 1.75,-0.921875 1.75,-0.9375 1.75,-1.140625 z"
               id="path3995" />
          </symbol>
          <symbol
             style="overflow:visible"
             overflow="visible"
             id="textext-d677eb0a-2">
            <path
               inkscape:connector-curvature="0"
               style="stroke:none"
               d="m 1.671875,-3.3125 0,-1.09375 -1.390625,0.109375 0,0.3125 c 0.703125,0 0.78125,0.0625 0.78125,0.5625 l 0,2.671875 c 0,0.4375 -0.109375,0.4375 -0.78125,0.4375 l 0,0.3125 c 0.390625,-0.015625 0.859375,-0.03125 1.140625,-0.03125 0.390625,0 0.859375,0 1.265625,0.03125 l 0,-0.3125 -0.21875,0 c -0.734375,0 -0.75,-0.109375 -0.75,-0.46875 l 0,-1.53125 c 0,-0.984375 0.421875,-1.875 1.171875,-1.875 0.0625,0 0.09375,0 0.109375,0.015625 -0.03125,0 -0.234375,0.125 -0.234375,0.390625 0,0.265625 0.21875,0.421875 0.4375,0.421875 0.171875,0 0.421875,-0.125 0.421875,-0.4375 0,-0.3125 -0.3125,-0.609375 -0.734375,-0.609375 -0.734375,0 -1.09375,0.671875 -1.21875,1.09375 z"
               id="path3998" />
          </symbol>
          <symbol
             style="overflow:visible"
             overflow="visible"
             id="textext-d677eb0a-3">
            <path
               inkscape:connector-curvature="0"
               style="stroke:none"
               d="M 4.6875,-2.140625 C 4.6875,-3.40625 3.703125,-4.46875 2.5,-4.46875 c -1.25,0 -2.21875,1.09375 -2.21875,2.328125 0,1.296875 1.03125,2.25 2.203125,2.25 1.203125,0 2.203125,-0.984375 2.203125,-2.25 z m -2.1875,2 c -0.4375,0 -0.875,-0.203125 -1.140625,-0.671875 -0.25,-0.4375 -0.25,-1.046875 -0.25,-1.40625 0,-0.390625 0,-0.921875 0.234375,-1.359375 C 1.609375,-4.03125 2.078125,-4.25 2.484375,-4.25 c 0.4375,0 0.859375,0.21875 1.125,0.65625 0.265625,0.421875 0.265625,1 0.265625,1.375 0,0.359375 0,0.90625 -0.21875,1.34375 C 3.421875,-0.421875 2.984375,-0.140625 2.5,-0.140625 z"
               id="path4001" />
          </symbol>
          <symbol
             style="overflow:visible"
             overflow="visible"
             id="textext-d677eb0a-4">
            <path
               inkscape:connector-curvature="0"
               style="stroke:none"
               d="m 1.71875,-3.765625 0,-3.15625 -1.4375,0.109375 0,0.3125 c 0.703125,0 0.78125,0.0625 0.78125,0.5625 l 0,5.9375 0.25,0 c 0,-0.015625 0.078125,-0.15625 0.359375,-0.625 0.140625,0.234375 0.5625,0.734375 1.296875,0.734375 1.1875,0 2.21875,-0.984375 2.21875,-2.265625 0,-1.265625 -0.96875,-2.25 -2.109375,-2.25 -0.78125,0 -1.203125,0.46875 -1.359375,0.640625 z m 0.03125,2.625 0,-2.046875 c 0,-0.1875 0,-0.203125 0.109375,-0.359375 C 2.25,-4.109375 2.796875,-4.1875 3.03125,-4.1875 c 0.453125,0 0.8125,0.265625 1.046875,0.640625 0.265625,0.40625 0.28125,0.96875 0.28125,1.390625 0,0.359375 -0.015625,0.953125 -0.296875,1.40625 -0.21875,0.3125 -0.59375,0.640625 -1.125,0.640625 -0.453125,0 -0.8125,-0.234375 -1.046875,-0.609375 C 1.75,-0.921875 1.75,-0.953125 1.75,-1.140625 z"
               id="path4004" />
          </symbol>
          <symbol
             style="overflow:visible"
             overflow="visible"
             id="textext-d677eb0a-5">
            <path
               inkscape:connector-curvature="0"
               style="stroke:none"
               d="m 3.3125,-0.75 c 0.046875,0.390625 0.3125,0.8125 0.78125,0.8125 0.21875,0 0.828125,-0.140625 0.828125,-0.953125 l 0,-0.5625 -0.25,0 0,0.5625 c 0,0.578125 -0.25,0.640625 -0.359375,0.640625 -0.328125,0 -0.375,-0.453125 -0.375,-0.5 l 0,-1.984375 c 0,-0.421875 0,-0.8125 -0.359375,-1.1875 C 3.1875,-4.3125 2.6875,-4.46875 2.21875,-4.46875 c -0.828125,0 -1.515625,0.46875 -1.515625,1.125 0,0.296875 0.203125,0.46875 0.46875,0.46875 0.28125,0 0.453125,-0.203125 0.453125,-0.453125 0,-0.125 -0.046875,-0.453125 -0.515625,-0.453125 C 1.390625,-4.140625 1.875,-4.25 2.1875,-4.25 c 0.5,0 1.0625,0.390625 1.0625,1.28125 l 0,0.359375 c -0.515625,0.03125 -1.203125,0.0625 -1.828125,0.359375 -0.75,0.34375 -1,0.859375 -1,1.296875 0,0.8125 0.96875,1.0625 1.59375,1.0625 0.65625,0 1.109375,-0.40625 1.296875,-0.859375 z M 3.25,-2.390625 l 0,1 c 0,0.9375 -0.71875,1.28125 -1.171875,1.28125 -0.484375,0 -0.890625,-0.34375 -0.890625,-0.84375 0,-0.546875 0.421875,-1.375 2.0625,-1.4375 z"
               id="path4007" />
          </symbol>
          <symbol
             style="overflow:visible"
             overflow="visible"
             id="textext-d677eb0a-6">
            <path
               inkscape:connector-curvature="0"
               style="stroke:none"
               d="M 1.765625,-4.40625 0.375,-4.296875 l 0,0.3125 c 0.640625,0 0.734375,0.0625 0.734375,0.546875 l 0,2.6875 c 0,0.4375 -0.109375,0.4375 -0.78125,0.4375 l 0,0.3125 C 0.640625,-0.015625 1.1875,-0.03125 1.421875,-0.03125 1.78125,-0.03125 2.125,-0.015625 2.46875,0 l 0,-0.3125 c -0.671875,0 -0.703125,-0.046875 -0.703125,-0.4375 z m 0.03125,-1.734375 c 0,-0.3125 -0.234375,-0.53125 -0.515625,-0.53125 -0.3125,0 -0.53125,0.265625 -0.53125,0.53125 0,0.265625 0.21875,0.53125 0.53125,0.53125 0.28125,0 0.515625,-0.21875 0.515625,-0.53125 z"
               id="path4010" />
          </symbol>
          <symbol
             style="overflow:visible"
             overflow="visible"
             id="textext-d677eb0a-7">
            <path
               inkscape:connector-curvature="0"
               style="stroke:none"
               d="m 1.765625,-6.921875 -1.4375,0.109375 0,0.3125 c 0.703125,0 0.78125,0.0625 0.78125,0.5625 l 0,5.1875 c 0,0.4375 -0.109375,0.4375 -0.78125,0.4375 l 0,0.3125 C 0.65625,-0.015625 1.1875,-0.03125 1.4375,-0.03125 c 0.25,0 0.734375,0.015625 1.109375,0.03125 l 0,-0.3125 c -0.671875,0 -0.78125,0 -0.78125,-0.4375 z"
               id="path4013" />
          </symbol>
          <symbol
             style="overflow:visible"
             overflow="visible"
             id="textext-d677eb0a-8">
            <path
               inkscape:connector-curvature="0"
               style="stroke:none"
               d="m 1.71875,-3.984375 1.4375,0 0,-0.3125 -1.4375,0 0,-1.828125 -0.25,0 c 0,0.8125 -0.296875,1.875 -1.28125,1.921875 l 0,0.21875 0.84375,0 0,2.75 c 0,1.21875 0.9375,1.34375 1.296875,1.34375 0.703125,0 0.984375,-0.703125 0.984375,-1.34375 l 0,-0.5625 -0.25,0 0,0.546875 c 0,0.734375 -0.296875,1.109375 -0.671875,1.109375 -0.671875,0 -0.671875,-0.90625 -0.671875,-1.078125 z"
               id="path4016" />
          </symbol>
          <symbol
             style="overflow:visible"
             overflow="visible"
             id="textext-d677eb0a-9">
            <path
               inkscape:connector-curvature="0"
               style="stroke:none"
               d="m 4.140625,-3.34375 c 0.25,-0.640625 0.765625,-0.640625 0.921875,-0.640625 l 0,-0.3125 c -0.234375,0.015625 -0.515625,0.03125 -0.75,0.03125 -0.171875,0 -0.640625,-0.015625 -0.859375,-0.03125 l 0,0.3125 c 0.3125,0 0.46875,0.171875 0.46875,0.421875 0,0.109375 -0.015625,0.125 -0.0625,0.25 L 2.84375,-0.875 1.75,-3.546875 C 1.703125,-3.65625 1.6875,-3.6875 1.6875,-3.734375 c 0,-0.25 0.359375,-0.25 0.5625,-0.25 l 0,-0.3125 c -0.265625,0.015625 -0.921875,0.03125 -1.09375,0.03125 -0.265625,0 -0.671875,-0.015625 -0.96875,-0.03125 l 0,0.3125 c 0.484375,0 0.671875,0 0.8125,0.34375 L 2.5,0 C 2.4375,0.125 2.296875,0.453125 2.25,0.59375 2.03125,1.140625 1.75,1.828125 1.109375,1.828125 c -0.046875,0 -0.28125,0 -0.46875,-0.1875 0.3125,-0.03125 0.390625,-0.25 0.390625,-0.421875 0,-0.25 -0.1875,-0.40625 -0.421875,-0.40625 -0.203125,0 -0.421875,0.125 -0.421875,0.421875 0,0.453125 0.421875,0.8125 0.921875,0.8125 0.625,0 1.03125,-0.578125 1.265625,-1.140625 z"
               id="path4019" />
          </symbol>
        </g>
      </defs>
      <g
         style="fill:#ffffff;fill-opacity:1"
         id="textext-d677eb0a-10">
        <g
           style="fill:#ffffff;fill-opacity:1"
           id="g4022">
          <use
             height="1052.3622"
             width="744.09448"
             style="fill:#ffffff;fill-opacity:1"
             xlink:href="#textext-d677eb0a-1"
             x="223.43201"
             y="134.765"
             id="use4024" />
          <use
             height="1052.3622"
             width="744.09448"
             style="fill:#ffffff;fill-opacity:1"
             xlink:href="#textext-d677eb0a-2"
             x="228.96722"
             y="134.765"
             id="use4026" />
          <use
             height="1052.3622"
             width="744.09448"
             style="fill:#ffffff;fill-opacity:1"
             xlink:href="#textext-d677eb0a-3"
             x="232.86957"
             y="134.765"
             id="use4028" />
          <use
             height="1052.3622"
             width="744.09448"
             style="fill:#ffffff;fill-opacity:1"
             xlink:href="#textext-d677eb0a-4"
             x="237.85088"
             y="134.765"
             id="use4030" />
          <use
             height="1052.3622"
             width="744.09448"
             style="fill:#ffffff;fill-opacity:1"
             xlink:href="#textext-d677eb0a-5"
             x="243.38609"
             y="134.765"
             id="use4032" />
          <use
             height="1052.3622"
             width="744.09448"
             style="fill:#ffffff;fill-opacity:1"
             xlink:href="#textext-d677eb0a-4"
             x="248.36739"
             y="134.765"
             id="use4034" />
          <use
             height="1052.3622"
             width="744.09448"
             style="fill:#ffffff;fill-opacity:1"
             xlink:href="#textext-d677eb0a-6"
             x="253.90262"
             y="134.765"
             id="use4036" />
          <use
             height="1052.3622"
             width="744.09448"
             style="fill:#ffffff;fill-opacity:1"
             xlink:href="#textext-d677eb0a-7"
             x="256.67023"
             y="134.765"
             id="use4038" />
          <use
             height="1052.3622"
             width="744.09448"
             style="fill:#ffffff;fill-opacity:1"
             xlink:href="#textext-d677eb0a-6"
             x="259.43784"
             y="134.765"
             id="use4040" />
          <use
             height="1052.3622"
             width="744.09448"
             style="fill:#ffffff;fill-opacity:1"
             xlink:href="#textext-d677eb0a-8"
             x="262.20544"
             y="134.765"
             id="use4042" />
        </g>
        <g
           style="fill:#ffffff;fill-opacity:1"
           id="g4044">
          <use
             height="1052.3622"
             width="744.09448"
             style="fill:#ffffff;fill-opacity:1"
             xlink:href="#textext-d677eb0a-9"
             x="265.80093"
             y="134.765"
             id="use4046" />
        </g>
      </g>
    </g>
  </g>
</svg>
